<?xml version="1.0" encoding="utf-8"?>
<!-- Generator: Adobe Illustrator 19.0.0, SVG Export Plug-In . SVG Version: 6.00 Build 0)  -->
<svg version="1.1" id="Layer_1" xmlns="http://www.w3.org/2000/svg" xmlns:xlink="http://www.w3.org/1999/xlink" x="0px" y="0px"
	 width="220px" height="220px" viewBox="0 0 220 220" style="enable-background:new 0 0 220 220;" xml:space="preserve">
<style type="text/css">
	.st0{fill:#D89A75;stroke:#B74B26;stroke-width:11;stroke-miterlimit:10;}
	.st1{fill:#FFFFFF;stroke:#FFFFFF;stroke-width:3;stroke-miterlimit:10;}
	.st2{fill:#010101;}
	.st3{fill:#E42328;}
</style>
<g id="XMLID_1_">
	<circle id="XMLID_74_" class="st0" cx="110.1" cy="110.7" r="101.1"/>
	<g id="XMLID_71_">
		<path id="XMLID_72_" class="st1" d="M184.3,126.3c-1-2.5-2.7-4.4-5.2-5.3c-1.9-0.7-3.9-0.8-6-0.5c3.8-7.3,4.8-13,2.7-24.3
			c4.8-2.8,8.1-6.3,9.1-10.3c2.1-8-3.8-17.2-14.9-25.6c0.1-0.4,0.3-0.9,0.4-1.3c4.3-16.2-10.9-34.3-34-40.5
			c-23.1-6.1-46.9,2-51.3,18.2c0,0,0,0,0,0.1C70,38.3,59.3,43.5,57,51.9c-1.5,5.5,0.3,12,4.9,18.5c-2.5,4.4-3.9,8.2-4.6,11.5
			c-1-0.9-2.1-1.6-3.3-2c-2.1-0.7-4.3-0.4-6.4,0.8C39.3,85.6,32.9,97,33.8,105c0.6,4.8,3.8,8.6,6.5,11.6c1,1.2,2.5,2.9,2.6,3.5
			l0,0.3c0,1,0,2.2,0.2,3.5c-4.3,3.9-8.5,7.9-9.3,9.2c-1.7,2.9-4.3,9.2-2.6,17.2c1.7,8,6.3,10.9,6.9,19.5s-7.5,25.3-10.3,26.1
			c-2.9,0.9,49.4,4.9,56.3,2c6.9-2.9,40.8,5.8,56-15.2c2.9-4,5.5-10.3,7.7-16.7c1.3,1,2.5,1.4,3.6,1.4c3,0,5.4-2.8,6.9-4.5l0.2-0.3
			c0.6-0.4,3.1-0.8,5-1.1c4.7-0.7,10.6-1.6,14.8-5.2C185.2,150.4,188.1,136.3,184.3,126.3z"/>
	</g>
	<g id="XMLID_2_">
		<path id="XMLID_70_" class="st2" d="M44.7,127.3c0.7,0.6,1.8,1,3.2,1c2.4,0,4.6-1.9,6-3.6c1.5-1.7,4.2-5.6,3.9-8.3l-4.5,0.9
			c-0.1,1.8-3.8,6.3-5,6.3c-0.5,0-0.8,0-0.7-3.5l0-0.4c0-2.1-1.6-3.9-3.6-6.3c-2.2-2.6-5-5.9-5.5-9.3c-0.7-6.1,4.8-15.5,11.3-19.4
			c0.9-0.5,1.7-0.7,2.6-0.4c3.1,1,10.8,6.8,10.8,6.8c-0.3-1-3.4-9.4-9-11.3c-2.1-0.7-4.3-0.4-6.4,0.8C39.3,85.6,32.9,97,33.8,105
			c0.6,4.8,3.8,8.6,6.5,11.6c1,1.2,2.5,2.9,2.6,3.5l0,0.3C42.8,122.4,42.8,125.7,44.7,127.3z"/>
		<path id="XMLID_69_" class="st2" d="M51.3,101.7c0,0,3.1-8.3,2.4-11c-0.6-2.2-2.4-3.6-4.5-2.6c-2,0.9-4.9,4.8-5,9.3
			c-0.1,3.2,2.8,11.8,2.8,11.8s-1.2-7.7-0.7-10.9c0.3-2.2,1-6.4,3.1-6.9C51.7,90.9,51.3,101.7,51.3,101.7z"/>
		<path id="XMLID_68_" class="st2" d="M50,106.5c0,0-0.8,3.7-1.9,3.7c-1.1,0.1-0.2,2.3,0.4,2.8c0.6,0.5,3.2-3.1,2.9-4.7
			c-0.3-1.6,0.6-5.1,0-4.7C50.8,104.1,50,106.5,50,106.5z"/>
		<path id="XMLID_29_" class="st2" d="M103.5,190.6C103.5,190.6,103.5,190.6,103.5,190.6c-13.3,0-25.4-4.1-33.4-6.9l-1-0.3
			c-18.2-6.2-28.8-24.8-29.8-40c-0.4-6.2,3.3-11.4,6.8-16.4c1.5-2.1,3.1-4.4,4.3-6.6c-0.5-7.1,1.5-13.7,6.1-20.2
			c1.1-1.5,0.9-2.8,0.5-6c-0.8-5.7-2-14.4,7.8-28.7c12.5-18.2,34.1-20.2,42.8-20.2c3.7,0,7.3,0.3,9.8,1c33.7,8.2,55.3,35,57.9,47.7
			c3.6,17.4,0.8,22.1-7.7,36c-4,6.5-9.5,15.5-16.4,29.3C140.7,180,124.7,190.6,103.5,190.6z M107.7,52.3c-7.6,0-26.3,1.7-37,17.2
			c-8.3,12.1-7.4,18.5-6.6,23.7c0.5,3.6,1,7.3-1.7,11.1c-2.4,3.4-5.6,8.8-4.8,16.5l0.1,1l-0.5,0.9c-1.5,3.1-3.5,5.8-5.3,8.4
			c-3.1,4.4-5.8,8.1-5.5,11.8c0.9,12.8,9.7,28.5,25.1,33.8l1,0.3c7.5,2.6,19,6.5,31.1,6.5c0,0,0,0,0,0c18.5,0,32.1-9,41.5-27.6
			c7.1-14,12.6-23.1,16.7-29.7c8.2-13.4,9.9-16.2,6.8-30.9c-1.8-8.5-20.7-34.5-52.7-42.3C115.1,52.9,112.4,52.3,107.7,52.3z"/>
		<g id="XMLID_25_">
			<path id="XMLID_28_" class="st2" d="M78.6,101.5c-6.7-4.8-12.1-9.3-12.5-9.6l3.5-4.2c0.2,0.1,16.7,13.8,27.8,19.3l-1.7,3.5
				C90.6,107.9,83.8,105.2,78.6,101.5z"/>
			<path id="XMLID_27_" class="st2" d="M76.5,115.4c-7.2-2.9-9.8-13.7-6.5-21.8l4.6,4c-2.1,5.2,0.2,13.6,4.5,15.4
				c4.3,1.8,14.1-3.6,13.7-8.4l2.6,1.5C92.1,114.1,83.7,118.3,76.5,115.4z"/>
			<path id="XMLID_26_" class="st2" d="M86.5,106.1c-0.6,2.1-3.1,3.2-5.6,2.5c-2.5-0.7-4-2.9-3.5-5c0.6-2.1,3.1-3.2,5.6-2.5
				C85.5,101.8,87.1,104.1,86.5,106.1z"/>
		</g>
		<g id="XMLID_21_">
			<path id="XMLID_24_" class="st2" d="M124.8,116.9c9.4,0.5,17.2,1.5,17.8,1.5l0.3-5.5c-0.2,0-24.6-0.4-38.1-3.3l-1,3.9
				C110,114.7,117.5,116.4,124.8,116.9z"/>
			<path id="XMLID_23_" class="st2" d="M116.4,129.5c8.4,2.5,19.3-4.8,22.4-13l-6.9-0.3c-1.9,6.3-10.9,11.3-16,9.7
				c-5.1-1.5-9.7-12-5.7-15.4l-3.4-0.6C103.7,118.3,108,127,116.4,129.5z"/>
			<path id="XMLID_22_" class="st2" d="M114.5,116c-1,1.9,0.3,4.4,3,5.6c2.7,1.1,5.7,0.5,6.7-1.5c1-1.9-0.3-4.4-3-5.6
				C118.6,113.4,115.6,114,114.5,116z"/>
		</g>
		<path id="XMLID_20_" class="st2" d="M89.9,141.7c-5-0.9-13.3-4.2-14.6-8.1c-0.4-1.2,0.1-1.8,1.4-4c1.7-2.8,8.9-5.1,11.4-5.5
			c1.4-0.2,5.8-3.6,7.7-7.5c2.7-5.5,5.3-15.1,5.5-15.3c0,0-1.1,11.2-4.1,17.2c-1.6,3.3-3.8,5.9-7.2,7.1c-0.9,0.3-9.4,2.2-11.1,7.4
			C77.8,136.8,89.9,141.7,89.9,141.7z"/>
		<path id="XMLID_18_" class="st2" d="M94.1,140.3c0,0-3.9-0.9-1.8-2c4.4-2.3,8.4,1.4,8.4,1.4s-2.4-1.3-3.9-1.1
			S94.1,140.3,94.1,140.3z"/>
		<path id="XMLID_17_" class="st2" d="M98.1,140.3c0,0,4.5,2.4,5.1,0.9c0.6-1.5-0.3-4.9-0.3-4.9s3.3,7.4,0.9,7.1
			C101.3,143,98.1,140.3,98.1,140.3z"/>
		<path id="XMLID_16_" class="st2" d="M75.9,133.7c0,0-2.8-3.2-1.5-4.2c1.3-1,4-1.6,4-1.6s-8.1-1.1-7,1.2
			C72.4,131.4,75.9,133.7,75.9,133.7z"/>
		<path id="XMLID_15_" class="st2" d="M76.5,126.4c0,0-14.2-4.3-19.7,11.9c2.7-8.6,4.6-10,6.8-11.7
			C67.4,123.8,76.5,126.4,76.5,126.4z"/>
		<path id="XMLID_14_" class="st2" d="M112.6,158.7c0,0,3.6-14.9-7.7-22.5c7.5,5.1,8.3,7.3,9.3,9.9
			C115.8,150.6,112.6,158.7,112.6,158.7z"/>
		<path id="XMLID_13_" class="st3" d="M136.3,93.6c0,0-45.4-11.7-57-18.8c7.7,4.8,14.5,7.7,23.3,10.7
			C111.3,88.6,136.3,93.6,136.3,93.6z"/>
		<path id="XMLID_12_" class="st3" d="M138.7,86.7c0,0-43.2-11.1-54.2-17.9c7.3,4.6,13.8,7.3,22.1,10.2
			C115,81.9,138.7,86.7,138.7,86.7z"/>
		<path id="XMLID_11_" class="st3" d="M141,79.8c0,0-40-10.3-50.2-16.6c6.7,4.2,12.8,6.8,20.5,9.4C119,75.4,141,79.8,141,79.8z"/>
		<path id="XMLID_10_" class="st2" d="M54.5,140.4c0,0,9.1,1.8,14.3,5.5c5.2,3.7,16.9,8.3,19.5,9.2c9.5,3.2,18.9,3.8,18.9,3.8
			s-8.6-2.8-12.6-4.2c-3.9-1.3-9.2-5-10.2-6.1c-1-1.2-4-0.7-6.2-1.6c-2.1-1-3.2-3.3-3.2-3.3s-5.1-0.3-5.9-0.6
			C65.6,141.8,54.5,140.4,54.5,140.4z"/>
		<path id="XMLID_9_" class="st2" d="M62.6,145.1c0.9,0.7,0.1,5.9,5.4,8.5c16.9,8.4,19.9,7,19.9,7s-8.6,3.7-20.6-4.2
			C64.4,154.5,62.6,145.1,62.6,145.1z"/>
		<path id="XMLID_8_" class="st2" d="M151.3,167.5c-1.1,0-2.4-0.4-3.6-1.4c-2.1-1.7-2.6-4.9-2.7-7.2c0-2.5,0.5-7.7,2.9-9.7l3.4,4
			c-1.3,1.6-1.4,8-0.3,8.9c0.4,0.3,0.7,0.6,3.4-2.4l0.3-0.4c1.6-1.8,4.4-2.2,8.1-2.7c4-0.6,9-1.3,12.1-4c5.3-4.6,7.5-16.4,4.6-24.3
			c-0.4-1.1-1.1-1.8-2.1-2.2c-3.6-1.4-15-1.9-15-1.9c1-0.6,10.3-5.5,16.8-3c2.4,0.9,4.2,2.7,5.2,5.3c3.8,10,0.9,24.1-6.1,30.1
			c-4.2,3.6-10.1,4.5-14.8,5.2c-1.9,0.3-4.4,0.7-5,1.1l-0.2,0.3C156.8,164.7,154.3,167.5,151.3,167.5z"/>
		<path id="XMLID_7_" class="st2" d="M164.9,141.3c0,0,3.6-9.2,6.3-10.9c2.2-1.4,4.9-1.3,6.1,1c1.1,2.2,0.8,7.5-2.6,11.4
			c-2.4,2.8-11.6,7.9-11.6,7.9s6.9-5.7,9-8.6c1.4-2.1,3.9-6.1,2.5-8C172.9,131.9,164.9,141.3,164.9,141.3z"/>
		<path id="XMLID_6_" class="st2" d="M162.4,146.2c0,0-2.1,3.6-1.1,4.5c1,0.9-1.5,2.1-2.5,2.1c-1,0-0.5-4.9,1-6
			c1.4-1.1,3.4-4.7,3.6-3.9C163.5,143.7,162.4,146.2,162.4,146.2z"/>
		<path id="XMLID_5_" class="st2" d="M53.6,114.5c0,0-18.1,15.8-19.8,18.7c-1.7,2.9-4.3,9.2-2.6,17.2c1.7,8,6.3,10.9,6.9,19.5
			s-7.5,25.3-10.3,26.1c-2.9,0.9,49.4,4.9,56.3,2c6.9-2.9,40.8,5.8,56-15.2c7.5-10.4,13.8-37.6,13.8-37.6l18.9-28.7
			c0,0,4.2-14.1,3.4-15.8c-3.5-7.9-37.4-14.8-40.4-15.7c-4.2-1.3,13.6,11.8,17.1,29.4c-0.4,8.3-8,23-9.1,25.3
			c-1.1,2.3-7.2,18.7-14.1,28.1c-4,5.5-24.7,9.5-34.4,8.9c-9.8-0.6-30.1-2.9-27-14.4c-6,6.3-15.2-1.4-16.9-3.4
			c-1.7-2-18.7-17.8,9.8-37.9c-1.4-4-0.9-19.8-0.9-19.8L53.6,114.5z"/>
		<path id="XMLID_4_" class="st2" d="M185,86c-4.1,15.3-40.2,23.4-75.5,14C74.2,90.5,53,67.2,57,51.9c4.1-15.3,36-20,71.3-10.6
			C163.7,50.7,189.1,70.7,185,86z"/>
		<path id="XMLID_3_" class="st2" d="M170.4,59.1c-4.3,16.2-26.5,24.4-49.6,18.2C97.7,71.2,80.9,53,85.2,36.8
			c4.3-16.2,28.2-24.4,51.3-18.2C159.5,24.7,174.8,42.8,170.4,59.1z"/>
	</g>
</g>
</svg>
