<?xml version="1.0" encoding="utf-8"?>
<!-- Generator: Adobe Illustrator 19.0.0, SVG Export Plug-In . SVG Version: 6.00 Build 0)  -->
<svg version="1.1" id="Layer_1" xmlns="http://www.w3.org/2000/svg" xmlns:xlink="http://www.w3.org/1999/xlink" x="0px" y="0px"
	 width="220px" height="220px" viewBox="0 0 220 220" style="enable-background:new 0 0 220 220;" xml:space="preserve">
<style type="text/css">
	.st0{fill:#D89A75;stroke:#B74B26;stroke-width:11;stroke-miterlimit:10;}
	.st1{fill:#FFFFFF;stroke:#FFFFFF;stroke-width:3;stroke-miterlimit:10;}
	.st2{fill:#010101;}
	.st3{fill:#E42328;}
</style>
<g id="XMLID_19_">
	<circle id="XMLID_66_" class="st0" cx="110.2" cy="109.7" r="100.6"/>
	<g id="XMLID_63_">
		<path id="XMLID_64_" class="st1" d="M184.1,125.2c-0.9-2.5-2.7-4.3-5.1-5.2c-1.8-0.7-3.9-0.8-6-0.5c3.8-7.3,4.7-12.9,2.7-24.1
			c4.8-2.8,8-6.3,9.1-10.2c2.1-7.9-3.8-17.1-14.9-25.5c0.1-0.4,0.3-0.9,0.4-1.3c4.3-16.1-10.9-34.2-33.8-40.3
			c-23-6.1-46.7,2-51,18.1c0,0,0,0,0,0.1c-15.1,1.4-25.8,6.6-28,15c-1.4,5.4,0.3,11.9,4.9,18.4c-2.5,4.4-3.9,8.2-4.6,11.5
			c-1-0.9-2.1-1.6-3.3-2c-2.1-0.7-4.3-0.4-6.4,0.8C39.7,84.8,33.3,96,34.3,104c0.6,4.8,3.8,8.6,6.4,11.6c1,1.2,2.4,2.8,2.6,3.5
			l0,0.3c0,1,0,2.2,0.2,3.5c-4.3,3.9-8.4,7.9-9.2,9.2c-1.7,2.9-4.3,9.1-2.6,17.1c1.7,8,6.3,10.9,6.9,19.4c0.6,8.6-7.4,25.1-10.3,26
			c-2.9,0.9,49.1,4.9,56,2c6.9-2.9,40.6,5.8,55.7-15.1c2.8-3.9,5.5-10.3,7.7-16.6c1.2,1,2.4,1.4,3.6,1.4c3,0,5.4-2.8,6.9-4.4
			l0.2-0.3c0.6-0.4,3.1-0.8,5-1.1c4.7-0.7,10.5-1.6,14.7-5.2C185,149.2,187.8,135.2,184.1,125.2z"/>
	</g>
	<g id="XMLID_31_">
		<path id="XMLID_62_" class="st2" d="M45.1,126.2c0.7,0.6,1.8,1,3.2,1c2.4,0,4.5-1.9,5.9-3.5c1.5-1.7,4.2-5.6,3.8-8.3l-4.5,0.9
			c-0.1,1.8-3.8,6.2-4.9,6.3c-0.5,0-0.8,0-0.7-3.5l0-0.4c0-2.1-1.6-3.9-3.6-6.3c-2.2-2.6-5-5.8-5.4-9.3c-0.7-6.1,4.7-15.4,11.2-19.3
			c0.9-0.5,1.7-0.7,2.6-0.4c3.1,1,10.7,6.8,10.7,6.8c-0.3-1-3.4-9.3-9-11.2c-2.1-0.7-4.3-0.4-6.4,0.8C39.7,84.8,33.3,96,34.3,104
			c0.6,4.8,3.8,8.6,6.4,11.6c1,1.2,2.4,2.8,2.6,3.5l0,0.3C43.2,121.3,43.2,124.6,45.1,126.2z"/>
		<path id="XMLID_61_" class="st2" d="M51.7,100.8c0,0,3.1-8.3,2.4-10.9c-0.6-2.1-2.4-3.5-4.5-2.6c-2,0.9-4.9,4.8-5,9.3
			c-0.1,3.2,2.8,11.8,2.8,11.8s-1.2-7.7-0.7-10.9c0.3-2.2,1-6.4,3.1-6.9C52.1,90,51.7,100.8,51.7,100.8z"/>
		<path id="XMLID_60_" class="st2" d="M50.4,105.5c0,0-0.8,3.6-1.9,3.7c-1.1,0.1-0.2,2.3,0.4,2.8c0.6,0.5,3.1-3.1,2.9-4.7
			c-0.3-1.6,0.6-5.1,0-4.6C51.2,103.2,50.4,105.5,50.4,105.5z"/>
		<path id="XMLID_57_" class="st2" d="M103.7,189.2C103.7,189.2,103.7,189.2,103.7,189.2c-13.3,0-25.3-4.1-33.2-6.9l-0.9-0.3
			c-18.1-6.2-28.6-24.7-29.6-39.8c-0.4-6.2,3.2-11.3,6.8-16.3c1.5-2.1,3.1-4.3,4.3-6.6c-0.5-7.1,1.5-13.7,6.1-20.1
			c1.1-1.5,0.9-2.8,0.5-6c-0.8-5.7-2-14.3,7.8-28.6c12.5-18.2,33.9-20.1,42.6-20.1c3.7,0,7.2,0.3,9.7,0.9
			c33.5,8.2,55,34.8,57.6,47.4c3.6,17.4,0.8,22-7.7,35.8c-4,6.5-9.4,15.4-16.3,29.1C140.7,178.7,124.7,189.2,103.7,189.2z
			 M107.8,51.6c-7.5,0-26.2,1.7-36.8,17.1c-8.3,12-7.3,18.4-6.6,23.6c0.5,3.6,1,7.2-1.7,11c-2.4,3.4-5.5,8.8-4.7,16.4l0.1,1
			l-0.5,0.9c-1.5,3-3.5,5.7-5.3,8.4c-3.1,4.3-5.7,8.1-5.5,11.8c0.8,12.8,9.7,28.4,24.9,33.6l1,0.3c7.5,2.6,18.9,6.5,31,6.5
			c0,0,0,0,0,0c18.4,0,31.9-9,41.3-27.4c7-13.9,12.6-23,16.6-29.6c8.1-13.3,9.8-16.1,6.8-30.8c-1.8-8.5-20.6-34.3-52.4-42.1
			C115.2,52.1,112.5,51.6,107.8,51.6z"/>
		<g id="XMLID_53_">
			<path id="XMLID_56_" class="st2" d="M80.8,99.3C72.9,97,67.2,95.2,66.8,95l1.2-4.5c0.2,0.1,19.2,7.2,31.7,8.5l-0.7,5.4
				C93.1,104,87,101.1,80.8,99.3z"/>
			<path id="XMLID_55_" class="st2" d="M76.8,114.4c-7.1-2.9-10.3-11.8-7-19.8l5.1,2.1c-2.1,5.2,0.2,13.5,4.5,15.3
				c4.3,1.8,14.3-2.8,14-9.1l3.4,0.2C93.4,113,83.9,117.3,76.8,114.4z"/>
			<path id="XMLID_54_" class="st2" d="M90.6,103.6c-0.6,2.1-3.1,3.2-5.5,2.5c-2.5-0.7-4-2.9-3.4-5c0.6-2.1,3.1-3.2,5.5-2.5
				C89.7,99.3,91.2,101.5,90.6,103.6z"/>
		</g>
		<g id="XMLID_49_">
			<path id="XMLID_52_" class="st2" d="M124.3,114.7c8.4,3.9,17,7.5,17.5,7.6l1.9-5.2c-0.2-0.1-23.4-7.3-35.5-14l-3.2,4.6
				C110.6,110.9,116.3,111.2,124.3,114.7z"/>
			<path id="XMLID_51_" class="st2" d="M116.4,128.4c8.3,2.5,17.6-2.1,20.7-10.3l-5.9-1.8c-2,5.3-10.2,10.1-15.3,8.5
				c-5.1-1.5-9.6-11.9-5.7-15.3l-3.3-0.6C103.8,117.2,108.1,125.9,116.4,128.4z"/>
			<path id="XMLID_50_" class="st2" d="M117.9,114c-1,1.9,0.3,4.4,3,5.5c2.7,1.1,5.7,0.4,6.7-1.5c1-1.9-0.3-4.4-3-5.5
				C121.9,111.4,118.9,112,117.9,114z"/>
		</g>
		<path id="XMLID_48_" class="st2" d="M90,140.5c-5-0.9-13.2-4.2-14.5-8.1c-0.4-1.2,0.1-1.8,1.4-3.9c1.7-2.8,8.9-5,11.3-5.5
			c1.4-0.2,5.8-3.6,7.7-7.4c2.7-5.5,5.3-15,5.4-15.2c0,0-1.1,11.2-4,17.2c-1.6,3.3-3.8,5.9-7.1,7.1c-0.9,0.3-9.4,2.2-11.1,7.4
			C78,135.6,90,140.5,90,140.5z"/>
		<path id="XMLID_47_" class="st2" d="M94.3,139.2c0,0-3.8-0.9-1.8-2c4.4-2.3,8.3,1.4,8.3,1.4s-2.4-1.2-3.8-1.1
			C95.4,137.6,94.3,139.2,94.3,139.2z"/>
		<path id="XMLID_46_" class="st2" d="M98.3,139.2c0,0,4.5,2.4,5.1,0.9c0.6-1.5-0.3-4.9-0.3-4.9s3.3,7.4,0.9,7
			C101.5,141.8,98.3,139.2,98.3,139.2z"/>
		<path id="XMLID_45_" class="st2" d="M76.2,132.6c0,0-2.8-3.2-1.5-4.2c1.3-1,4-1.6,4-1.6s-8-1.1-7,1.2
			C72.7,130.3,76.2,132.6,76.2,132.6z"/>
		<path id="XMLID_44_" class="st2" d="M76.8,125.3c0,0-14.1-4.3-19.6,11.9c2.7-8.6,4.6-10,6.8-11.6
			C67.7,122.7,76.8,125.3,76.8,125.3z"/>
		<path id="XMLID_43_" class="st2" d="M112.7,157.5c0,0,3.5-14.9-7.7-22.4c7.4,5.1,8.2,7.2,9.2,9.8
			C115.9,149.4,112.7,157.5,112.7,157.5z"/>
		<path id="XMLID_42_" class="st3" d="M136.2,92.7c0,0-45.2-11.6-56.7-18.7c7.6,4.8,14.4,7.6,23.2,10.7
			C111.4,87.7,136.2,92.7,136.2,92.7z"/>
		<path id="XMLID_41_" class="st3" d="M138.6,85.8c0,0-43-11.1-53.9-17.8c7.3,4.5,13.7,7.3,22,10.1C115,81,138.6,85.8,138.6,85.8z"
			/>
		<path id="XMLID_40_" class="st3" d="M140.9,79c0,0-39.8-10.2-49.9-16.5c6.7,4.2,12.7,6.7,20.4,9.4C119.1,74.5,140.9,79,140.9,79z"
			/>
		<path id="XMLID_39_" class="st2" d="M64.8,130c0,0-3.8,9.9,4.3,14.7c5.4,3.3,17,7.9,19.4,9.1c14.6,7.3,21.2-4.8,21.2-4.8
			s-8.1,5.1-14.9,4.5c-4.1-0.3-9.2-5-10.2-6.1c-1-1.2-4-0.7-6.1-1.6c-2.1-1-3.2-3.3-3.2-3.3s-5.1-0.3-5.9-0.6
			C62.2,139.1,64.8,130,64.8,130z"/>
		<path id="XMLID_38_" class="st2" d="M65.3,144.4c0.9,0.6,1.8,5.2,7.3,7.4c17.5,6.9,31.1,3,31.1,3s-19.7,7.6-32.3,0.8
			C68.4,154,65.3,144.4,65.3,144.4z"/>
		<path id="XMLID_37_" class="st2" d="M151.2,166.2c-1.1,0-2.4-0.4-3.6-1.4c-2.1-1.7-2.6-4.8-2.7-7.2c0-2.5,0.5-7.7,2.9-9.7l3.4,4
			c-1.3,1.6-1.4,7.9-0.3,8.8c0.4,0.3,0.7,0.6,3.3-2.4l0.3-0.4c1.6-1.7,4.4-2.2,8-2.7c4-0.6,9-1.3,12-4c5.3-4.6,7.5-16.3,4.6-24.2
			c-0.4-1.1-1.1-1.8-2.1-2.2c-3.6-1.4-14.9-1.9-14.9-1.9c1-0.6,10.2-5.4,16.7-3c2.4,0.9,4.2,2.7,5.1,5.2c3.7,10,0.9,24-6,30
			c-4.2,3.6-10,4.5-14.7,5.2c-1.9,0.3-4.4,0.7-5,1.1l-0.2,0.3C156.6,163.4,154.2,166.2,151.2,166.2z"/>
		<path id="XMLID_36_" class="st2" d="M164.7,140.1c0,0,3.6-9.2,6.2-10.9c2.2-1.4,4.9-1.2,6,1c1.1,2.2,0.8,7.5-2.6,11.4
			c-2.4,2.7-11.6,7.9-11.6,7.9s6.9-5.6,9-8.6c1.4-2.1,3.9-6.1,2.5-8C172.6,130.8,164.7,140.1,164.7,140.1z"/>
		<path id="XMLID_35_" class="st2" d="M162.2,145.1c0,0-2.1,3.6-1.1,4.5c0.9,0.9-1.5,2.1-2.5,2.1c-0.9,0-0.5-4.8,0.9-6
			c1.4-1.1,3.4-4.7,3.6-3.9C163.3,142.5,162.2,145.1,162.2,145.1z"/>
		<path id="XMLID_34_" class="st2" d="M54,113.4c0,0-18,15.7-19.7,18.6c-1.7,2.9-4.3,9.1-2.6,17.1c1.7,8,6.3,10.9,6.9,19.4
			c0.6,8.6-7.4,25.1-10.3,26c-2.9,0.9,49.1,4.9,56,2c6.9-2.9,40.6,5.8,55.7-15.1c7.5-10.4,13.7-37.4,13.7-37.4l18.9-28.6
			c0,0,4.2-14,3.4-15.7c-3.5-7.8-37.2-14.7-40.2-15.6c-4.2-1.2,13.5,11.8,17,29.2c-0.4,8.3-8,22.9-9.1,25.2s-7.1,18.6-14,28
			c-4,5.5-24.6,9.4-34.3,8.9c-9.7-0.6-30-2.9-26.9-14.3c-6,6.3-15.1-1.4-16.9-3.4c-1.7-2-18.6-17.7,9.7-37.7
			c-1.4-4-0.9-19.7-0.9-19.7L54,113.4z"/>
		<path id="XMLID_33_" class="st2" d="M184.7,85.1c-4,15.2-40,23.3-75.1,13.9c-35.2-9.4-56.3-32.6-52.2-47.8
			c4-15.2,35.8-19.9,71-10.5C163.5,50,188.8,69.9,184.7,85.1z"/>
		<path id="XMLID_32_" class="st2" d="M170.2,58.3c-4.3,16.1-26.4,24.3-49.4,18.1c-23-6.1-39.7-24.2-35.4-40.3
			c4.3-16.1,28-24.3,51-18.1C159.4,24.1,174.5,42.2,170.2,58.3z"/>
	</g>
</g>
</svg>
