<?xml version="1.0" encoding="utf-8"?>
<!-- Generator: Adobe Illustrator 19.0.0, SVG Export Plug-In . SVG Version: 6.00 Build 0)  -->
<svg version="1.1" id="Layer_1" xmlns="http://www.w3.org/2000/svg" xmlns:xlink="http://www.w3.org/1999/xlink" x="0px" y="0px"
	 width="220px" height="220px" viewBox="0 0 220 220" style="enable-background:new 0 0 220 220;" xml:space="preserve">
<style type="text/css">
	.st0{fill:#D79974;stroke:#B64B26;stroke-width:11;stroke-miterlimit:10;}
	.st1{fill:#ACFF5C;stroke:#FFFFFF;stroke-width:3;stroke-miterlimit:10;}
	.st2{fill:#E32228;}
	.st3{fill:#408B00;}
</style>
<g id="XMLID_25_">
	<circle id="XMLID_76_" class="st0" cx="110.4" cy="110.7" r="101"/>
	<g id="XMLID_65_">
		<path id="XMLID_66_" class="st1" d="M184.5,126.2c-0.9-2.5-2.7-4.3-5.2-5.2c-1.9-0.7-3.9-0.8-6-0.5c3.8-7.3,4.8-13,2.7-24.2
			c4.8-2.8,8.1-6.3,9.1-10.3c2.1-8-3.8-17.2-14.9-25.6c0.1-0.4,0.3-0.9,0.4-1.3c4.3-16.2-10.9-34.3-34-40.5
			c-23.1-6.1-46.9,2-51.2,18.2c0,0,0,0,0,0.1c-15.1,1.4-25.9,6.6-28.1,15c-1.5,5.5,0.3,12,4.9,18.5c-2.5,4.4-3.9,8.2-4.6,11.5
			c-1-0.9-2.1-1.6-3.3-2c-2.1-0.7-4.3-0.4-6.4,0.8c-8.3,4.9-14.7,16.2-13.7,24.2c0.6,4.8,3.8,8.6,6.5,11.6c1,1.2,2.5,2.9,2.6,3.5
			l0,0.3c0,1,0,2.2,0.2,3.5c-4.3,3.9-8.5,7.9-9.2,9.2c-1.7,2.9-4.3,9.2-2.6,17.2c1.7,8,6.3,10.9,6.9,19.5
			c0.6,8.6-7.5,25.2-10.3,26.1c-2.9,0.9,49.3,4.9,56.2,2c6.9-2.9,40.8,5.8,55.9-15.2c2.9-3.9,5.5-10.3,7.7-16.7
			c1.3,1,2.5,1.4,3.6,1.4c3,0,5.4-2.8,6.9-4.5l0.2-0.3c0.6-0.4,3.1-0.8,5-1.1c4.7-0.7,10.5-1.6,14.7-5.2
			C185.4,150.3,188.3,136.2,184.5,126.2z"/>
	</g>
	<g id="XMLID_33_">
		<path id="XMLID_64_" d="M45.1,127.2c0.7,0.6,1.8,1,3.2,1c2.4,0,4.5-1.9,6-3.6c1.5-1.7,4.2-5.6,3.8-8.3l-4.5,0.9
			c-0.1,1.8-3.8,6.3-5,6.3c-0.5,0-0.8,0-0.7-3.5l0-0.4c0-2.1-1.6-3.9-3.6-6.3c-2.2-2.6-5-5.9-5.5-9.3c-0.7-6.1,4.8-15.5,11.3-19.3
			c0.9-0.5,1.7-0.7,2.6-0.4c3.1,1,10.7,6.8,10.7,6.8c-0.3-1-3.4-9.4-9-11.2c-2.1-0.7-4.3-0.4-6.4,0.8c-8.3,4.9-14.7,16.2-13.7,24.2
			c0.6,4.8,3.8,8.6,6.5,11.6c1,1.2,2.5,2.9,2.6,3.5l0,0.3C43.2,122.3,43.2,125.6,45.1,127.2z"/>
		<path id="XMLID_63_" d="M51.7,101.7c0,0,3.1-8.3,2.4-11c-0.6-2.1-2.4-3.6-4.5-2.6c-2,0.9-4.9,4.8-5,9.3
			c-0.1,3.2,2.8,11.8,2.8,11.8s-1.2-7.7-0.7-10.9c0.3-2.2,1-6.4,3.1-6.9C52.1,90.8,51.7,101.7,51.7,101.7z"/>
		<path id="XMLID_62_" d="M50.4,106.5c0,0-0.8,3.7-1.9,3.7c-1.1,0.1-0.2,2.3,0.4,2.8c0.6,0.5,3.2-3.1,2.9-4.7
			c-0.3-1.6,0.6-5.1,0-4.7C51.2,104.1,50.4,106.5,50.4,106.5z"/>
		<path id="XMLID_59_" d="M103.8,190.4C103.8,190.4,103.8,190.4,103.8,190.4c-13.3,0-25.4-4.1-33.3-6.9l-0.9-0.3
			c-18.2-6.2-28.8-24.8-29.8-39.9c-0.4-6.2,3.3-11.3,6.8-16.3c1.5-2.1,3.1-4.3,4.3-6.6c-0.5-7.1,1.5-13.7,6.1-20.2
			c1.1-1.5,0.9-2.8,0.5-6c-0.8-5.7-2-14.4,7.8-28.7C77.8,47.3,99.4,45.3,108,45.3c3.7,0,7.3,0.3,9.7,1c33.6,8.2,55.2,34.9,57.8,47.6
			c3.6,17.4,0.8,22.1-7.7,35.9c-4,6.5-9.5,15.5-16.4,29.2C141,179.9,124.9,190.4,103.8,190.4z M108,52.3c-7.6,0-26.3,1.7-37,17.2
			c-8.3,12.1-7.4,18.5-6.6,23.7c0.5,3.6,1,7.3-1.7,11.1c-2.4,3.4-5.6,8.8-4.8,16.5l0.1,1l-0.5,0.9c-1.5,3.1-3.5,5.8-5.3,8.4
			c-3.1,4.4-5.8,8.1-5.5,11.8c0.9,12.8,9.7,28.5,25,33.7l1,0.3c7.5,2.6,18.9,6.5,31.1,6.5c0,0,0,0,0,0c18.5,0,32.1-9,41.4-27.6
			c7.1-14,12.6-23.1,16.7-29.7c8.2-13.4,9.9-16.2,6.8-30.9c-1.8-8.5-20.6-34.4-52.6-42.2C115.4,52.9,112.7,52.3,108,52.3z"/>
		<g id="XMLID_55_">
			<path id="XMLID_58_" d="M76.4,104c-7.9-2.4-9.1-7.9-9.6-8.1l1.2-4.5c0.2,0.1,10.1,10.3,31.8,8.5l-0.6,2.3
				C97,104.7,82.6,105.8,76.4,104z"/>
			<path id="XMLID_57_" d="M76.8,115.3c-7.1-2.9-10.3-11.8-7-19.9l5.1,2.1c-2.1,5.2,0.2,13.6,4.5,15.4c4.3,1.8,14.4-2.8,14-9.1
				l4-0.9C94.1,112.9,84,118.2,76.8,115.3z"/>
			<path id="XMLID_56_" d="M87.5,110.5c-1.8,0.3-3.6-1.2-3.9-3.4c-0.4-2.2,0.8-4.2,2.6-4.5c1.8-0.3,3.6,1.2,3.9,3.4
				C90.4,108.2,89.3,110.2,87.5,110.5z"/>
		</g>
		<g id="XMLID_51_">
			<path id="XMLID_54_" d="M118.4,118.1c8.4,3.9,17.2,4.5,24.1,4.2l1.7-4c-0.2-0.1-20-1.7-35.6-14.1l-1.5,2.3
				C109.3,109.8,110.3,114.5,118.4,118.1z"/>
			<path id="XMLID_53_" d="M116.6,129.4c8.4,2.5,17.7-2.1,20.8-10.3l-5.9-1.8c-2,5.4-10.2,10-15.3,8.6c-6.4-1.8-9.7-12-5.7-15.4
				l-2.2-3.3C103.3,118.2,108.3,126.9,116.6,129.4z"/>
			<path id="XMLID_52_" d="M111.6,120.3c1,1.5,3.2,1.5,5.1,0c1.8-1.5,2.5-3.9,1.5-5.3c-1-1.5-3.2-1.5-5.1,0
				C111.3,116.5,110.6,118.9,111.6,120.3z"/>
		</g>
		<path id="XMLID_50_" d="M90.2,141.6c-5-0.9-13.3-4.2-14.5-8.1c-0.4-1.2,0.1-1.8,1.4-3.9c1.7-2.8,8.9-5.1,11.4-5.5
			c1.4-0.2,5.8-3.6,7.7-7.5c2.7-5.5,5.3-15.1,5.4-15.3c0,0-1.1,11.2-4.1,17.2c-1.6,3.3-3.8,5.9-7.1,7.1c-0.9,0.3-9.4,2.2-11.1,7.4
			C78.1,136.7,90.2,141.6,90.2,141.6z"/>
		<path id="XMLID_49_" d="M94.4,140.2c0,0-3.9-0.9-1.8-2c4.4-2.3,8.4,1.4,8.4,1.4s-2.4-1.3-3.9-1.1
			C95.6,138.7,94.4,140.2,94.4,140.2z"/>
		<path id="XMLID_48_" d="M98.4,140.2c0,0,4.5,2.4,5.1,0.9c0.6-1.5-0.3-4.9-0.3-4.9s3.3,7.4,0.9,7
			C101.6,142.9,98.4,140.2,98.4,140.2z"/>
		<path id="XMLID_47_" d="M76.2,133.6c0,0-2.8-3.2-1.5-4.2c1.3-1,4-1.6,4-1.6s-8.1-1.1-7,1.2C72.8,131.3,76.2,133.6,76.2,133.6z"/>
		<path id="XMLID_46_" d="M76.9,126.3c0,0-14.2-4.3-19.7,11.9c2.7-8.6,4.6-10,6.8-11.7C67.8,123.7,76.9,126.3,76.9,126.3z"/>
		<path id="XMLID_45_" d="M112.9,158.6c0,0,3.6-14.9-7.7-22.5c7.5,5.1,8.3,7.3,9.2,9.9C116.1,150.5,112.9,158.6,112.9,158.6z"/>
		<path id="XMLID_44_" class="st2" d="M136.5,93.6c0,0-45.4-11.7-56.9-18.8c7.7,4.8,14.5,7.7,23.2,10.7
			C111.6,88.5,136.5,93.6,136.5,93.6z"/>
		<path id="XMLID_43_" class="st2" d="M138.9,86.7c0,0-43.1-11.1-54.1-17.9c7.3,4.6,13.8,7.3,22.1,10.2
			C115.2,81.8,138.9,86.7,138.9,86.7z"/>
		<path id="XMLID_42_" class="st2" d="M141.3,79.8c0,0-40-10.3-50.1-16.5c6.7,4.2,12.7,6.8,20.5,9.4
			C119.3,75.3,141.3,79.8,141.3,79.8z"/>
		<path id="XMLID_41_" d="M63.5,133.4c0,0-2.7,10.3,5.8,14.2c5.8,2.7,17.8,6.1,20.4,7.1c15.3,5.7,20.6-7.1,20.6-7.1
			s-7.6,5.9-14.4,6.1c-4.1,0.1-9.7-4-10.8-5c-1.1-1.1-4.1-0.2-6.3-1c-2.2-0.8-3.6-2.9-3.6-2.9s-5.1,0.3-5.9,0.1
			C61.9,142.8,63.5,133.4,63.5,133.4z"/>
		<path id="XMLID_40_" d="M71.2,158.4c1.1,0.2,6.5,1.8,12.4,1.3c21.3-1.6,25.2-10.6,25.2-10.6s-4.9,12.3-25.5,14.1
			C79.8,163.6,71.2,158.4,71.2,158.4z"/>
		<path id="XMLID_39_" d="M151.6,167.3c-1.1,0-2.4-0.4-3.6-1.4c-2.1-1.7-2.6-4.9-2.7-7.2c0-2.5,0.5-7.7,2.9-9.7l3.4,4
			c-1.3,1.6-1.4,7.9-0.3,8.8c0.4,0.3,0.7,0.6,3.4-2.4l0.3-0.4c1.6-1.8,4.4-2.2,8.1-2.7c4-0.6,9-1.3,12.1-4
			c5.3-4.6,7.5-16.4,4.6-24.3c-0.4-1.1-1.1-1.8-2.1-2.2c-3.6-1.4-14.9-1.9-14.9-1.9c1-0.6,10.3-5.4,16.8-3c2.4,0.9,4.2,2.7,5.2,5.2
			c3.8,10,0.9,24.1-6.1,30.1c-4.2,3.6-10,4.5-14.7,5.2c-1.9,0.3-4.4,0.7-5,1.1l-0.2,0.3C157,164.6,154.6,167.3,151.6,167.3z"/>
		<path id="XMLID_38_" d="M165.1,141.2c0,0,3.6-9.2,6.2-10.9c2.2-1.4,4.9-1.3,6,1c1.1,2.2,0.8,7.5-2.6,11.4
			c-2.4,2.8-11.6,7.9-11.6,7.9s6.9-5.7,9-8.6c1.4-2.1,3.9-6.1,2.5-8C173.1,131.8,165.1,141.2,165.1,141.2z"/>
		<path id="XMLID_37_" d="M162.6,146.1c0,0-2.1,3.6-1.1,4.5c1,0.9-1.5,2.1-2.5,2.1c-1,0-0.5-4.9,1-6s3.4-4.7,3.6-3.9
			C163.7,143.5,162.6,146.1,162.6,146.1z"/>
		<path id="XMLID_36_" d="M53.9,114.4c0,0-18.1,15.8-19.8,18.6c-1.7,2.9-4.3,9.2-2.6,17.2c1.7,8,6.3,10.9,6.9,19.5
			c0.6,8.6-7.5,25.2-10.3,26.1c-2.9,0.9,49.3,4.9,56.2,2c6.9-2.9,40.8,5.8,55.9-15.2c7.5-10.4,13.8-37.6,13.8-37.6l18.9-28.7
			c0,0,4.2-14.1,3.4-15.8C172.8,92.8,139,85.9,136,85c-4.2-1.3,13.6,11.8,17.1,29.3c-0.4,8.3-8,23-9.1,25.3
			c-1.1,2.3-7.2,18.6-14,28.1c-4,5.5-24.7,9.5-34.4,8.9c-9.7-0.6-30.1-2.9-27-14.3c-6,6.3-15.2-1.4-16.9-3.4
			c-1.7-2-18.6-17.8,9.7-37.8c-1.4-4-0.9-19.8-0.9-19.8L53.9,114.4z"/>
		<path id="XMLID_35_" d="M185.2,85.9c-4.1,15.2-40.1,23.3-75.4,14c-35.3-9.4-56.5-32.7-52.4-48c4.1-15.2,36-20,71.3-10.6
			C163.9,50.7,189.2,70.7,185.2,85.9z"/>
		<path id="XMLID_34_" d="M170.7,59.1c-4.3,16.2-26.5,24.4-49.6,18.2C98,71.1,81.2,53,85.5,36.8c4.3-16.2,28.1-24.4,51.2-18.2
			C159.8,24.7,175,42.9,170.7,59.1z"/>
	</g>
</g>
<g id="XMLID_19_">
	<path id="XMLID_21_" class="st3" d="M67.9,151.1c-0.6,1-0.8,0.4-2.1,0.9c-1.3,0.4-2.7,0.6-4.4,0.6c-0.3,0-0.9,0-1.9,0
		c-0.7,0-1.1,0.1-1.3,0.4c-0.2,0.3-0.2,0.6,0.1,0.9c0.2,0.3,0.9,0.8,1.9,1.5c0.8,0.5,1.3,0.9,1.6,1.2c0.3,0.3,0.6,0.6,0.8,0.9
		c0.2,0.4,0.2,0.8,0.2,1.2c0,0.5-0.2,0.9-0.4,1.3c-0.7,1-1.7,1.4-3.1,1c-0.8-0.2-1.4-0.3-1.8-0.4c-0.3,0-0.8,0-1.2,0
		c-0.3,0.1-0.6,0.1-0.9,0.1c-0.3,0-0.5,0.1-0.6,0.1c-0.9,0.1-1.7,0-2.4-0.4c-0.6-0.4-0.9-0.8-1.1-1.5c-0.2-0.6-0.1-1.2,0.3-1.8
		c0.4-0.6,1.1-1.2,2.3-1.8c0.9-0.5,1.4-0.8,1.7-1c0.3-0.2,0.5-0.4,0.6-0.6c0.1-0.2,0.2-0.4,0.1-0.6c0-0.2-0.1-0.4-0.3-0.5
		c-0.3-0.2-0.8-0.2-1.3,0.1c-0.5,0.3-1.2,0.8-2.2,1.7c-1.3,1.2-2.3,1.9-3.2,2.2c-0.9,0.3-1.7,0.2-2.4-0.2c-0.6-0.4-0.9-0.9-1-1.6
		c0-0.2-0.1-0.5,0-0.8c0-0.3,0.1-0.8,0.3-1.5c0.2-0.9,0.2-1.8,0.1-2.8c-0.1-0.7-0.1-1.3-0.1-1.7c0.1-0.4,0.2-0.8,0.4-1.1
		c0.4-0.6,0.9-1,1.6-1.1c0.7-0.1,1.4,0.1,2.1,0.5c0.7,0.4,1.3,1,1.9,1.8c0.6,0.8,1.1,1.3,1.5,1.7c0.3,0.4,0.6,0.6,0.9,0.8
		c0.3,0.2,0.7,0.3,1,0.3c0.3,0,0.5-0.2,0.7-0.4c0.2-0.4,0.2-0.8,0-1.2c-0.3-0.4-0.9-0.9-1.9-1.6c-2.4-1.5-3.1-3-2.1-4.6
		c0.5-0.7,1.1-1.2,2-1.3c0.3,0,0.6,0,0.8,0c0.2,0,0.7,0.2,1.5,0.4c0.5,0.1,0.8,0.2,1.1,0.2c0.3,0,0.7,0,1.1-0.1
		c1-0.2,1.8-0.2,2.2-0.2c0.4,0,0.8,0.2,1.2,0.4c0.6,0.4,1,0.9,1.1,1.5c0.2,0.7,0.1,1.3-0.3,1.9c-0.4,0.6-1.2,1.2-2.6,2
		c-1.3,0.8-2.1,1.4-2.3,1.7c-0.3,0.5-0.2,0.8,0.2,1.1c0.4,0.2,1.1,0.4,2.4,0.5c1.8,0.1,3.2,0,4.4-0.3
		C66.1,150.7,68.5,150.1,67.9,151.1z"/>
</g>
<g id="XMLID_27_">
	<path id="XMLID_28_" class="st3" d="M79.3,151.3c0.2,1.4-0.4,1-1.3,2.4c-0.8,1.4-2.1,2.7-3.7,4c-0.2,0.2-0.9,0.7-1.9,1.5
		c-0.7,0.5-1,1-0.9,1.4c0.1,0.4,0.3,0.7,0.7,0.7c0.4,0.1,1.4,0.1,2.9,0c1.1-0.1,2-0.1,2.5-0.1c0.5,0,1,0.1,1.4,0.3
		c0.4,0.2,0.8,0.5,1.2,1c0.3,0.5,0.5,1,0.6,1.5c0.2,1.5-0.5,2.6-2.1,3.4c-0.9,0.4-1.6,0.8-1.9,1c-0.4,0.2-0.7,0.6-1.1,1
		c-0.3,0.3-0.5,0.6-0.7,0.8c-0.2,0.2-0.4,0.4-0.5,0.6c-0.8,0.8-1.6,1.3-2.6,1.4c-0.8,0.1-1.5-0.1-2.2-0.5c-0.6-0.5-1-1.1-1.1-1.9
		c-0.1-0.9,0.1-2,0.7-3.5c0.4-1.1,0.7-1.9,0.8-2.3c0.1-0.4,0.1-0.7,0.1-1.1c0-0.3-0.2-0.5-0.4-0.7c-0.2-0.2-0.4-0.3-0.7-0.2
		c-0.5,0.1-0.9,0.4-1.2,1.1c-0.3,0.7-0.5,1.7-0.7,3.2c-0.3,2.1-0.7,3.6-1.3,4.6c-0.6,1-1.4,1.5-2.4,1.6c-0.8,0.1-1.6-0.1-2.3-0.7
		c-0.2-0.2-0.4-0.4-0.6-0.7c-0.2-0.3-0.5-0.8-0.9-1.6c-0.5-1-1.2-1.9-2.1-2.7c-0.7-0.6-1.1-1.1-1.4-1.5c-0.3-0.4-0.4-0.9-0.5-1.4
		c-0.1-0.9,0.1-1.7,0.7-2.3c0.6-0.6,1.4-1,2.4-1.2c1-0.1,2,0,3.2,0.2c1.2,0.2,2.1,0.4,2.7,0.5c0.6,0.1,1.1,0.1,1.5,0
		c0.5-0.1,0.9-0.2,1.1-0.5c0.3-0.3,0.4-0.6,0.3-0.9c-0.1-0.5-0.4-0.9-1-1.1c-0.6-0.2-1.6-0.2-3.1,0c-3.4,0.4-5.3-0.4-5.6-2.7
		c-0.1-1.1,0.2-2,0.9-2.7c0.3-0.3,0.5-0.5,0.7-0.6c0.2-0.1,0.8-0.4,1.7-0.8c0.5-0.2,1-0.4,1.2-0.7c0.3-0.2,0.6-0.5,1-1
		c0.9-0.9,1.5-1.6,1.9-1.9c0.4-0.3,0.9-0.5,1.5-0.6c0.9-0.1,1.6,0.1,2.3,0.6c0.7,0.5,1.1,1.2,1.2,2c0.1,0.8-0.2,2.1-0.9,3.9
		c-0.6,1.8-0.9,2.9-0.9,3.4c0.1,0.7,0.4,1,1,0.9c0.5-0.1,1.4-0.5,2.6-1.4c1.8-1.3,3.1-2.5,4-3.7C77.2,152.2,79.1,149.9,79.3,151.3z"
		/>
</g>
<g id="XMLID_30_">
	<path id="XMLID_31_" class="st3" d="M60.6,166.9c-0.2,0.9-0.5,0.5-1.2,1.1c-0.8,0.6-1.8,1.1-3,1.5c-0.2,0.1-0.6,0.2-1.4,0.4
		c-0.5,0.1-0.7,0.3-0.8,0.6c-0.1,0.2,0,0.4,0.3,0.6c0.2,0.1,0.8,0.3,1.7,0.6c0.7,0.2,1.1,0.3,1.4,0.5c0.3,0.1,0.6,0.3,0.8,0.5
		c0.2,0.2,0.4,0.5,0.5,0.8c0.1,0.3,0.1,0.7,0,1c-0.2,0.9-0.8,1.4-1.9,1.5c-0.6,0.1-1.1,0.1-1.3,0.2c-0.3,0.1-0.5,0.2-0.9,0.3
		c-0.2,0.1-0.4,0.2-0.6,0.3c-0.2,0.1-0.3,0.2-0.4,0.2c-0.6,0.3-1.2,0.4-1.8,0.3c-0.5-0.1-0.9-0.4-1.1-0.8c-0.3-0.4-0.3-0.8-0.2-1.3
		c0.1-0.5,0.5-1.1,1.2-1.8c0.5-0.6,0.8-0.9,0.9-1.1c0.1-0.2,0.2-0.4,0.3-0.6c0-0.2,0-0.3-0.1-0.5c-0.1-0.1-0.2-0.2-0.4-0.3
		c-0.3-0.1-0.6,0.1-0.9,0.4c-0.3,0.3-0.7,0.9-1.1,1.7c-0.6,1.1-1.2,1.9-1.7,2.3c-0.5,0.4-1.1,0.6-1.7,0.4c-0.5-0.1-0.9-0.4-1.1-0.9
		c-0.1-0.2-0.2-0.3-0.2-0.5c0-0.2-0.1-0.6-0.2-1.1c-0.1-0.7-0.3-1.3-0.6-2c-0.3-0.5-0.4-0.9-0.5-1.2c-0.1-0.3-0.1-0.6,0-0.9
		c0.1-0.5,0.4-0.9,0.9-1.2c0.5-0.2,1-0.3,1.6-0.1c0.6,0.1,1.2,0.4,1.8,0.8c0.6,0.4,1.1,0.7,1.4,0.8c0.3,0.2,0.6,0.3,0.8,0.3
		c0.3,0.1,0.5,0.1,0.8,0c0.2-0.1,0.3-0.2,0.4-0.4c0.1-0.3,0-0.6-0.3-0.8c-0.3-0.2-0.9-0.4-1.7-0.6c-2-0.5-2.9-1.4-2.6-2.7
		c0.1-0.6,0.5-1.1,1.1-1.4c0.2-0.1,0.4-0.2,0.5-0.2c0.2,0,0.5-0.1,1.1-0.1c0.4,0,0.6-0.1,0.8-0.1c0.2-0.1,0.5-0.2,0.8-0.3
		c0.7-0.4,1.2-0.6,1.5-0.7c0.3-0.1,0.6-0.1,1,0c0.5,0.1,0.9,0.4,1.2,0.8c0.3,0.4,0.4,0.9,0.2,1.4c-0.1,0.5-0.6,1.2-1.3,2
		c-0.7,0.9-1.2,1.5-1.2,1.8c-0.1,0.4,0,0.6,0.4,0.7c0.3,0.1,0.9,0,1.8-0.2c1.3-0.3,2.3-0.8,3-1.3C59.2,167,60.8,166,60.6,166.9z"/>
</g>
<g id="XMLID_73_">
	<path id="XMLID_74_" class="st3" d="M67,172.4c0.7,1,0.1,0.9-0.1,2.3c-0.1,1.3-0.6,2.8-1.3,4.3c-0.1,0.2-0.4,0.8-0.9,1.8
		c-0.3,0.6-0.4,1.1-0.2,1.4c0.2,0.3,0.5,0.4,0.8,0.3c0.4-0.1,1.1-0.5,2.2-1.1c0.8-0.5,1.4-0.8,1.8-1c0.4-0.2,0.8-0.3,1.2-0.3
		c0.4,0,0.8,0.1,1.2,0.3c0.4,0.2,0.7,0.5,1,0.9c0.7,1,0.6,2.1-0.4,3.3c-0.5,0.7-0.9,1.1-1.1,1.5c-0.2,0.3-0.4,0.7-0.5,1.2
		c-0.1,0.3-0.2,0.6-0.3,0.9c-0.1,0.2-0.1,0.4-0.2,0.6c-0.3,0.9-0.7,1.5-1.4,2c-0.6,0.4-1.2,0.5-1.8,0.4c-0.6-0.1-1.1-0.5-1.5-1.1
		c-0.4-0.6-0.6-1.6-0.7-2.9c-0.1-1-0.2-1.7-0.2-2c-0.1-0.3-0.2-0.6-0.3-0.8c-0.1-0.2-0.3-0.3-0.5-0.4c-0.2-0.1-0.4,0-0.6,0.1
		c-0.3,0.2-0.5,0.6-0.5,1.2c0,0.6,0.2,1.5,0.6,2.7c0.5,1.7,0.7,2.9,0.7,3.9c-0.1,0.9-0.5,1.6-1.2,2.1c-0.6,0.4-1.2,0.5-2,0.3
		c-0.2-0.1-0.5-0.2-0.7-0.3c-0.2-0.1-0.7-0.4-1.3-0.9c-0.8-0.5-1.6-1-2.5-1.3c-0.7-0.2-1.3-0.4-1.6-0.7c-0.4-0.2-0.7-0.5-0.9-0.9
		c-0.4-0.6-0.5-1.3-0.3-2c0.2-0.7,0.7-1.3,1.4-1.7c0.7-0.4,1.5-0.8,2.5-1c1-0.3,1.7-0.5,2.2-0.6c0.5-0.2,0.9-0.3,1.1-0.5
		c0.3-0.2,0.6-0.5,0.7-0.8c0.1-0.3,0.1-0.6-0.1-0.8c-0.2-0.4-0.6-0.5-1.1-0.5c-0.5,0.1-1.2,0.4-2.3,1.1c-2.4,1.6-4.1,1.6-5.1,0
		c-0.5-0.8-0.6-1.5-0.3-2.4c0.1-0.3,0.2-0.5,0.3-0.7c0.1-0.2,0.4-0.6,1-1.2c0.3-0.4,0.6-0.7,0.7-0.9c0.1-0.3,0.3-0.6,0.4-1.1
		c0.3-1,0.6-1.7,0.8-2.1c0.2-0.4,0.5-0.7,0.9-1c0.6-0.4,1.2-0.5,1.9-0.4c0.7,0.1,1.2,0.5,1.6,1.1c0.4,0.6,0.6,1.6,0.7,3.2
		c0.2,1.6,0.3,2.5,0.6,2.9c0.3,0.5,0.7,0.6,1.1,0.3c0.4-0.2,0.8-0.9,1.5-2c0.9-1.6,1.4-3,1.6-4.2C65.9,173.8,66.4,171.4,67,172.4z"
		/>
</g>
<g id="XMLID_117_">
	<path id="XMLID_118_" class="st3" d="M68.4,189.1c1.2,0.2,0.7,0.6,1.7,1.5c0.9,1,1.7,2.2,2.4,3.8c0.1,0.2,0.4,0.8,0.8,1.8
		c0.2,0.6,0.6,1,1,1c0.3,0,0.6-0.1,0.8-0.4c0.2-0.3,0.4-1.1,0.6-2.3c0.2-0.9,0.3-1.6,0.4-2c0.1-0.4,0.3-0.8,0.6-1.1
		c0.3-0.3,0.6-0.6,1-0.7c0.4-0.2,0.9-0.2,1.3-0.2c1.2,0.2,2,1,2.3,2.4c0.2,0.8,0.3,1.4,0.4,1.8c0.1,0.3,0.3,0.7,0.6,1.1
		c0.2,0.3,0.4,0.5,0.5,0.8c0.1,0.2,0.3,0.4,0.3,0.5c0.5,0.8,0.7,1.6,0.6,2.4c-0.1,0.7-0.4,1.2-0.9,1.6c-0.5,0.4-1.1,0.6-1.8,0.5
		c-0.7-0.1-1.6-0.5-2.7-1.3c-0.8-0.6-1.4-1-1.7-1.1c-0.3-0.2-0.6-0.3-0.8-0.3c-0.2,0-0.5,0-0.7,0.1c-0.2,0.1-0.3,0.3-0.3,0.5
		c-0.1,0.4,0.2,0.8,0.6,1.2c0.5,0.4,1.3,0.8,2.4,1.3c1.6,0.7,2.7,1.3,3.4,2c0.6,0.7,0.9,1.4,0.8,2.3c-0.1,0.7-0.4,1.2-1.1,1.7
		c-0.2,0.1-0.4,0.3-0.7,0.4c-0.3,0.1-0.8,0.2-1.5,0.4c-0.9,0.2-1.8,0.6-2.6,1.1c-0.6,0.4-1.1,0.7-1.5,0.8c-0.4,0.1-0.8,0.2-1.2,0.1
		c-0.7-0.1-1.3-0.4-1.7-1c-0.4-0.6-0.5-1.3-0.4-2.2c0.1-0.8,0.4-1.6,0.9-2.5c0.4-0.9,0.7-1.6,0.9-2.1c0.2-0.5,0.3-0.9,0.3-1.2
		c0.1-0.4,0-0.7-0.1-1c-0.2-0.3-0.4-0.4-0.6-0.5c-0.4-0.1-0.8,0.1-1.1,0.5c-0.3,0.4-0.5,1.2-0.6,2.4c-0.4,2.8-1.5,4.1-3.3,3.9
		c-0.9-0.1-1.6-0.6-2-1.3c-0.2-0.3-0.3-0.5-0.3-0.7c-0.1-0.2-0.1-0.7-0.3-1.5c-0.1-0.5-0.2-0.9-0.3-1.1c-0.1-0.3-0.3-0.6-0.6-1
		c-0.6-0.9-0.9-1.5-1.1-2c-0.2-0.4-0.2-0.9-0.1-1.3c0.1-0.7,0.4-1.3,0.9-1.7c0.5-0.4,1.2-0.6,1.9-0.5c0.7,0.1,1.6,0.6,2.9,1.5
		c1.3,0.9,2.1,1.4,2.5,1.4c0.6,0.1,0.9-0.1,0.9-0.6c0.1-0.4-0.1-1.2-0.5-2.4c-0.6-1.7-1.3-3-2.1-3.9C68.7,191,67.2,188.9,68.4,189.1
		z"/>
</g>
<g id="XMLID_108_">
	<path id="XMLID_109_" class="st3" d="M45,174.1c0.9,0.7,0.4,0.9,0.7,2.2c0.3,1.3,0.3,2.8,0.1,4.5c0,0.3-0.1,0.9-0.3,2
		c-0.1,0.7,0,1.1,0.3,1.4c0.3,0.2,0.6,0.2,0.9,0c0.3-0.2,0.9-0.8,1.7-1.7c0.6-0.7,1.1-1.2,1.4-1.5c0.3-0.3,0.7-0.5,1-0.7
		c0.4-0.1,0.8-0.2,1.3-0.1c0.5,0.1,0.9,0.3,1.2,0.5c1,0.8,1.2,1.8,0.7,3.2c-0.3,0.8-0.5,1.4-0.6,1.7c-0.1,0.3-0.1,0.8-0.1,1.2
		c0,0.4,0,0.7,0,0.9c0,0.3,0,0.5,0,0.6c0,0.9-0.2,1.7-0.7,2.3c-0.4,0.5-1,0.9-1.6,0.9c-0.6,0.1-1.2-0.1-1.8-0.5
		c-0.6-0.5-1.1-1.3-1.6-2.5c-0.4-0.9-0.7-1.5-0.8-1.8c-0.2-0.3-0.3-0.5-0.6-0.7c-0.2-0.2-0.4-0.2-0.6-0.2c-0.2,0-0.4,0.1-0.5,0.3
		c-0.3,0.3-0.3,0.8-0.1,1.3c0.2,0.6,0.7,1.3,1.4,2.4c1,1.4,1.6,2.6,1.9,3.5c0.2,0.9,0.1,1.7-0.5,2.4c-0.4,0.5-1,0.8-1.8,0.9
		c-0.3,0-0.5,0-0.8-0.1c-0.3-0.1-0.8-0.2-1.5-0.4c-0.9-0.3-1.8-0.4-2.8-0.4c-0.7,0-1.3,0-1.7-0.1c-0.4-0.1-0.8-0.3-1.1-0.5
		c-0.6-0.5-0.9-1.1-0.9-1.8c0-0.7,0.2-1.4,0.8-2.1c0.5-0.6,1.2-1.2,2-1.7c0.8-0.5,1.5-1,1.9-1.3c0.4-0.3,0.7-0.6,0.9-0.8
		c0.3-0.3,0.4-0.6,0.4-0.9c0-0.3-0.1-0.6-0.3-0.7c-0.3-0.3-0.7-0.3-1.2-0.1c-0.4,0.2-1,0.8-1.8,1.8c-1.8,2.2-3.4,2.8-4.8,1.6
		c-0.7-0.6-1-1.3-1-2.2c0-0.3,0-0.6,0.1-0.8c0.1-0.2,0.2-0.7,0.6-1.4c0.2-0.5,0.3-0.8,0.4-1.1c0.1-0.3,0.1-0.7,0-1.2
		c0-1.1,0-1.8,0.1-2.2c0.1-0.4,0.3-0.8,0.5-1.2c0.4-0.6,1-0.9,1.7-1c0.7-0.1,1.3,0.1,1.9,0.5c0.5,0.4,1.1,1.4,1.7,2.8
		c0.6,1.4,1.1,2.3,1.4,2.5c0.4,0.4,0.8,0.3,1.1,0c0.3-0.3,0.5-1.1,0.8-2.3c0.3-1.8,0.4-3.3,0.2-4.5C44.4,175.9,44.1,173.4,45,174.1z
		"/>
</g>
<g id="XMLID_111_">
	<path id="XMLID_112_" class="st3" d="M38.7,207.6c-0.3,0.8-0.5,0.4-1.4,1c-0.9,0.5-1.9,0.9-3.2,1.1c-0.2,0-0.7,0.1-1.4,0.3
		c-0.5,0.1-0.8,0.2-0.9,0.5c-0.1,0.2,0,0.4,0.2,0.6c0.2,0.2,0.7,0.4,1.6,0.8c0.6,0.3,1.1,0.5,1.4,0.7c0.3,0.2,0.5,0.4,0.7,0.6
		c0.2,0.2,0.3,0.5,0.3,0.9c0,0.3,0,0.7-0.1,1c-0.3,0.9-1,1.3-2.1,1.2c-0.6,0-1.1,0-1.4,0c-0.3,0-0.6,0.1-0.9,0.2
		c-0.2,0.1-0.5,0.2-0.6,0.2c-0.2,0.1-0.3,0.1-0.4,0.2c-0.7,0.2-1.3,0.2-1.8,0c-0.5-0.2-0.8-0.5-1-0.9c-0.2-0.4-0.2-0.9,0-1.4
		c0.2-0.5,0.7-1.1,1.4-1.7c0.6-0.5,0.9-0.8,1.1-1c0.2-0.2,0.3-0.4,0.4-0.6c0.1-0.2,0.1-0.3,0-0.5c-0.1-0.2-0.2-0.3-0.3-0.3
		c-0.3-0.1-0.6,0-1,0.3c-0.4,0.3-0.8,0.8-1.3,1.6c-0.8,1-1.4,1.7-2,2.1c-0.6,0.4-1.2,0.4-1.8,0.2c-0.5-0.2-0.8-0.5-1-1.1
		c-0.1-0.2-0.1-0.4-0.1-0.6c0-0.2,0-0.6,0-1.1c0-0.7-0.1-1.4-0.4-2.1c-0.2-0.5-0.3-0.9-0.3-1.3c0-0.3,0-0.6,0.1-0.9
		c0.2-0.5,0.5-0.9,1-1.1c0.5-0.2,1-0.2,1.7,0.1c0.6,0.2,1.1,0.6,1.7,1c0.6,0.5,1,0.8,1.3,1c0.3,0.2,0.6,0.4,0.8,0.4
		c0.3,0.1,0.5,0.1,0.8,0.1c0.2-0.1,0.4-0.2,0.4-0.4c0.1-0.3,0-0.6-0.2-0.9c-0.2-0.3-0.8-0.6-1.7-0.9c-2-0.7-2.7-1.8-2.3-3.1
		c0.2-0.6,0.7-1,1.3-1.2c0.2-0.1,0.4-0.1,0.6-0.1c0.2,0,0.5,0,1.2,0.1c0.4,0,0.7,0,0.9,0c0.2,0,0.5-0.1,0.8-0.2
		c0.7-0.3,1.3-0.4,1.6-0.5c0.3,0,0.7,0,1,0.1c0.5,0.2,0.9,0.5,1.1,1c0.2,0.5,0.2,0.9,0,1.4c-0.2,0.5-0.7,1.1-1.6,1.9
		c-0.9,0.8-1.4,1.3-1.5,1.6c-0.1,0.4-0.1,0.7,0.3,0.8c0.3,0.1,0.9,0.1,1.8,0c1.3-0.2,2.4-0.5,3.2-0.9
		C37.3,207.6,39,206.8,38.7,207.6z"/>
</g>
<g id="XMLID_114_">
	<path id="XMLID_115_" class="st3" d="M86.5,154.8c-0.3,0.8-0.5,0.4-1.4,1c-0.9,0.5-1.9,0.9-3.2,1.1c-0.2,0-0.7,0.1-1.4,0.3
		c-0.5,0.1-0.8,0.2-0.9,0.5c-0.1,0.2,0,0.4,0.2,0.6c0.2,0.2,0.7,0.4,1.6,0.8c0.6,0.3,1.1,0.5,1.4,0.7c0.3,0.2,0.5,0.4,0.7,0.6
		c0.2,0.2,0.3,0.5,0.3,0.9c0,0.3,0,0.7-0.1,1c-0.3,0.9-1,1.3-2.1,1.2c-0.6,0-1.1,0-1.4,0c-0.3,0-0.6,0.1-0.9,0.2
		c-0.2,0.1-0.5,0.2-0.6,0.2c-0.2,0.1-0.3,0.1-0.4,0.2c-0.7,0.2-1.3,0.2-1.8,0c-0.5-0.2-0.8-0.5-1-0.9c-0.2-0.4-0.2-0.9,0-1.4
		c0.2-0.5,0.7-1.1,1.4-1.7c0.6-0.5,0.9-0.8,1.1-1c0.2-0.2,0.3-0.4,0.4-0.6c0.1-0.2,0.1-0.3,0-0.5c-0.1-0.2-0.2-0.3-0.3-0.3
		c-0.3-0.1-0.6,0-1,0.3c-0.4,0.3-0.8,0.8-1.3,1.6c-0.8,1-1.4,1.7-2,2.1c-0.6,0.4-1.2,0.4-1.8,0.2c-0.5-0.2-0.8-0.5-1-1.1
		c-0.1-0.2-0.1-0.4-0.1-0.6c0-0.2,0-0.6,0-1.1c0-0.7-0.1-1.4-0.4-2.1c-0.2-0.5-0.3-0.9-0.3-1.3c0-0.3,0-0.6,0.1-0.9
		c0.2-0.5,0.5-0.9,1-1.1c0.5-0.2,1-0.2,1.7,0.1c0.6,0.2,1.1,0.6,1.7,1c0.6,0.5,1,0.8,1.3,1c0.3,0.2,0.6,0.4,0.8,0.4
		c0.3,0.1,0.5,0.1,0.8,0.1c0.2-0.1,0.4-0.2,0.4-0.4c0.1-0.3,0-0.6-0.2-0.9c-0.2-0.3-0.8-0.6-1.7-0.9c-2-0.7-2.7-1.8-2.3-3.1
		c0.2-0.6,0.7-1,1.3-1.2c0.2-0.1,0.4-0.1,0.6-0.1c0.2,0,0.5,0,1.2,0.1c0.4,0,0.7,0,0.9,0c0.2,0,0.5-0.1,0.8-0.2
		c0.7-0.3,1.3-0.4,1.6-0.5c0.3,0,0.7,0,1,0.1c0.5,0.2,0.9,0.5,1.1,1c0.2,0.5,0.2,0.9,0,1.4c-0.2,0.5-0.7,1.1-1.6,1.9
		c-0.9,0.8-1.4,1.3-1.5,1.6c-0.1,0.4-0.1,0.7,0.3,0.8c0.3,0.1,0.9,0.1,1.8,0c1.3-0.2,2.4-0.5,3.2-0.9
		C85.1,154.7,86.8,154,86.5,154.8z"/>
</g>
<g id="XMLID_96_">
	<path id="XMLID_97_" class="st3" d="M26.8,175.9c0.9,0.7,0.4,0.9,0.7,2.2c0.3,1.3,0.4,2.8,0.1,4.5c0,0.3-0.1,0.9-0.2,2
		c-0.1,0.7,0,1.1,0.3,1.4c0.3,0.2,0.6,0.2,0.9,0c0.3-0.2,0.9-0.8,1.7-1.7c0.6-0.7,1.1-1.2,1.4-1.5c0.3-0.3,0.7-0.5,1-0.7
		c0.4-0.1,0.8-0.2,1.3-0.1c0.5,0.1,0.9,0.3,1.2,0.5c1,0.8,1.2,1.8,0.7,3.2c-0.3,0.8-0.5,1.4-0.6,1.7c-0.1,0.3-0.1,0.8-0.1,1.2
		c0,0.4,0,0.7,0.1,0.9c0,0.3,0,0.5,0,0.6c0,0.9-0.2,1.7-0.7,2.3c-0.4,0.5-0.9,0.9-1.6,1c-0.6,0.1-1.2-0.1-1.8-0.5
		c-0.6-0.4-1.1-1.3-1.6-2.5c-0.4-0.9-0.7-1.5-0.9-1.8c-0.2-0.3-0.3-0.5-0.6-0.7c-0.2-0.2-0.4-0.2-0.6-0.2c-0.2,0-0.4,0.1-0.5,0.3
		c-0.3,0.3-0.3,0.8-0.1,1.3c0.2,0.6,0.7,1.3,1.5,2.3c1,1.4,1.7,2.5,1.9,3.4c0.2,0.9,0.1,1.7-0.5,2.4c-0.4,0.6-1,0.8-1.8,0.9
		c-0.3,0-0.5,0-0.8-0.1c-0.3-0.1-0.8-0.2-1.5-0.4c-0.9-0.3-1.8-0.4-2.8-0.4c-0.7,0-1.3,0-1.7-0.1c-0.4-0.1-0.8-0.3-1.1-0.5
		c-0.6-0.5-0.9-1-0.9-1.8c0-0.7,0.2-1.4,0.8-2.1c0.5-0.6,1.2-1.2,2-1.7c0.8-0.6,1.4-1,1.9-1.3c0.4-0.3,0.7-0.6,0.9-0.8
		c0.3-0.3,0.4-0.6,0.4-0.9c0-0.3-0.1-0.6-0.3-0.7c-0.3-0.3-0.7-0.3-1.2-0.1c-0.4,0.2-1,0.8-1.8,1.8c-1.8,2.3-3.4,2.8-4.8,1.7
		c-0.7-0.6-1.1-1.3-1.1-2.1c0-0.3,0-0.6,0.1-0.8c0.1-0.2,0.2-0.7,0.5-1.5c0.2-0.5,0.3-0.8,0.4-1.1c0-0.3,0.1-0.7,0-1.2
		c0-1.1,0-1.8,0-2.2c0.1-0.4,0.3-0.8,0.5-1.2c0.4-0.6,1-0.9,1.7-1c0.7-0.1,1.3,0.1,1.9,0.5c0.5,0.4,1.1,1.3,1.7,2.8
		c0.7,1.4,1.1,2.3,1.5,2.5c0.4,0.3,0.8,0.3,1.1-0.1c0.3-0.3,0.5-1.1,0.7-2.3c0.3-1.8,0.4-3.3,0.2-4.5
		C26.2,177.6,25.9,175.1,26.8,175.9z"/>
</g>
<g id="XMLID_99_">
	<path id="XMLID_100_" class="st3" d="M46.3,190.5c0.9,0.7,0.4,0.9,0.7,2.2c0.3,1.3,0.4,2.8,0.1,4.5c0,0.3-0.1,0.9-0.2,2
		c-0.1,0.7,0,1.1,0.3,1.4c0.3,0.2,0.6,0.2,0.9,0c0.3-0.2,0.9-0.8,1.7-1.7c0.6-0.7,1.1-1.2,1.4-1.5c0.3-0.3,0.7-0.5,1-0.7
		c0.4-0.1,0.8-0.2,1.3-0.1c0.5,0.1,0.9,0.3,1.2,0.5c1,0.8,1.2,1.8,0.7,3.2c-0.3,0.8-0.5,1.4-0.6,1.7c-0.1,0.3-0.1,0.8-0.1,1.2
		c0,0.4,0,0.7,0.1,0.9c0,0.3,0,0.5,0,0.6c0,0.9-0.2,1.7-0.7,2.3c-0.4,0.5-0.9,0.9-1.6,1c-0.6,0.1-1.2-0.1-1.8-0.5
		c-0.6-0.4-1.1-1.3-1.6-2.5c-0.4-0.9-0.7-1.5-0.9-1.8c-0.2-0.3-0.3-0.5-0.6-0.7c-0.2-0.2-0.4-0.2-0.6-0.2c-0.2,0-0.4,0.1-0.5,0.3
		c-0.3,0.3-0.3,0.8-0.1,1.3c0.2,0.6,0.7,1.3,1.5,2.3c1,1.4,1.7,2.5,1.9,3.4c0.2,0.9,0.1,1.7-0.5,2.4c-0.4,0.6-1,0.8-1.8,0.9
		c-0.3,0-0.5,0-0.8-0.1c-0.3-0.1-0.8-0.2-1.5-0.4c-0.9-0.3-1.8-0.4-2.8-0.4c-0.7,0-1.3,0-1.7-0.1c-0.4-0.1-0.8-0.3-1.1-0.5
		c-0.6-0.5-0.9-1-0.9-1.8c0-0.7,0.2-1.4,0.8-2.1c0.5-0.6,1.2-1.2,2-1.7c0.8-0.6,1.4-1,1.9-1.3c0.4-0.3,0.7-0.6,0.9-0.8
		c0.3-0.3,0.4-0.6,0.4-0.9c0-0.3-0.1-0.6-0.3-0.7c-0.3-0.3-0.7-0.3-1.2-0.1c-0.4,0.2-1,0.8-1.8,1.8c-1.8,2.3-3.4,2.8-4.8,1.7
		c-0.7-0.6-1.1-1.3-1.1-2.1c0-0.3,0-0.6,0.1-0.8c0.1-0.2,0.2-0.7,0.5-1.5c0.2-0.5,0.3-0.8,0.4-1.1c0-0.3,0.1-0.7,0-1.2
		c0-1.1,0-1.8,0-2.2c0.1-0.4,0.3-0.8,0.5-1.2c0.4-0.6,1-0.9,1.7-1c0.7-0.1,1.3,0.1,1.9,0.5c0.5,0.4,1.1,1.3,1.7,2.8
		c0.7,1.4,1.1,2.3,1.5,2.5c0.4,0.3,0.8,0.3,1.1-0.1c0.3-0.3,0.5-1.1,0.7-2.3c0.3-1.8,0.4-3.3,0.2-4.5
		C45.7,192.3,45.4,189.8,46.3,190.5z"/>
</g>
<g id="XMLID_102_">
	<path id="XMLID_103_" class="st3" d="M7.7,189.4c1.2,0.2,0.7,0.6,1.6,1.6c0.9,1,1.6,2.3,2.2,3.9c0.1,0.2,0.3,0.9,0.7,1.9
		c0.2,0.6,0.5,1,0.9,1.1c0.3,0.1,0.6-0.1,0.8-0.4c0.2-0.3,0.4-1.1,0.7-2.3c0.2-0.9,0.4-1.6,0.5-2c0.2-0.4,0.4-0.8,0.6-1.1
		c0.3-0.3,0.6-0.5,1.1-0.7c0.4-0.1,0.9-0.2,1.3-0.1c1.2,0.2,1.9,1.1,2.1,2.5c0.1,0.9,0.2,1.4,0.3,1.8c0.1,0.3,0.3,0.7,0.5,1.1
		c0.2,0.3,0.3,0.6,0.5,0.8c0.1,0.2,0.2,0.4,0.3,0.5c0.5,0.8,0.6,1.6,0.5,2.4c-0.1,0.7-0.4,1.2-1,1.6c-0.5,0.4-1.1,0.5-1.8,0.4
		c-0.7-0.1-1.6-0.6-2.6-1.5c-0.8-0.6-1.3-1-1.6-1.2c-0.3-0.2-0.5-0.3-0.8-0.4c-0.2,0-0.5,0-0.7,0.1c-0.2,0.1-0.3,0.3-0.4,0.5
		c-0.1,0.4,0.1,0.8,0.6,1.2c0.4,0.4,1.2,0.9,2.4,1.4c1.6,0.8,2.6,1.5,3.3,2.2c0.6,0.7,0.8,1.5,0.7,2.3c-0.1,0.7-0.5,1.2-1.2,1.6
		c-0.2,0.1-0.5,0.2-0.7,0.3c-0.3,0.1-0.8,0.2-1.5,0.3c-0.9,0.2-1.8,0.5-2.6,1c-0.6,0.4-1.2,0.6-1.6,0.7c-0.4,0.1-0.8,0.1-1.2,0
		c-0.7-0.1-1.3-0.5-1.6-1.1c-0.4-0.6-0.5-1.3-0.3-2.2c0.1-0.8,0.5-1.6,1-2.4c0.5-0.9,0.8-1.5,1-2c0.2-0.5,0.3-0.8,0.4-1.1
		c0.1-0.4,0-0.7-0.1-1c-0.1-0.3-0.3-0.4-0.6-0.5c-0.4-0.1-0.8,0.1-1.1,0.5c-0.3,0.4-0.5,1.2-0.8,2.4c-0.5,2.8-1.7,4-3.5,3.7
		c-0.9-0.2-1.5-0.6-1.9-1.4c-0.2-0.3-0.3-0.5-0.3-0.7c0-0.2-0.1-0.7-0.2-1.5c0-0.5-0.1-0.9-0.2-1.2c-0.1-0.3-0.3-0.6-0.5-1
		c-0.5-0.9-0.9-1.6-1-2c-0.1-0.4-0.2-0.9-0.1-1.3c0.1-0.7,0.5-1.2,1-1.6c0.6-0.4,1.2-0.5,1.9-0.4c0.7,0.1,1.6,0.7,2.8,1.7
		c1.2,1,2.1,1.5,2.5,1.6c0.6,0.1,0.9-0.1,1-0.6c0.1-0.4-0.1-1.2-0.4-2.4c-0.5-1.7-1.2-3.1-1.9-4.1C7.9,191.3,6.5,189.2,7.7,189.4z"
		/>
</g>
<g id="XMLID_120_">
	<path id="XMLID_121_" class="st3" d="M11.9,172.3c0.5,0.2,0.3,0.4,0.5,0.9c0.3,0.6,0.5,1.2,0.5,2c0,0.1,0,0.4,0.1,0.9
		c0,0.3,0.1,0.5,0.3,0.6c0.1,0.1,0.3,0,0.4-0.1c0.1-0.1,0.3-0.4,0.6-1c0.2-0.4,0.4-0.7,0.5-0.8c0.1-0.2,0.2-0.3,0.4-0.4
		c0.2-0.1,0.3-0.2,0.6-0.2c0.2,0,0.4,0,0.6,0.1c0.5,0.2,0.8,0.7,0.7,1.4c0,0.4-0.1,0.7-0.1,0.8c0,0.2,0,0.4,0.1,0.6
		c0,0.2,0.1,0.3,0.1,0.4c0,0.1,0.1,0.2,0.1,0.3c0.1,0.4,0.1,0.8-0.1,1.1c-0.1,0.3-0.3,0.5-0.6,0.6c-0.3,0.1-0.6,0.1-0.9,0
		c-0.3-0.1-0.6-0.5-1-1c-0.3-0.4-0.5-0.6-0.6-0.7c-0.1-0.1-0.2-0.2-0.3-0.3c-0.1,0-0.2-0.1-0.3,0c-0.1,0-0.2,0.1-0.2,0.2
		c-0.1,0.2,0,0.4,0.1,0.6c0.2,0.2,0.5,0.5,0.9,0.9c0.6,0.5,1,1,1.2,1.4c0.2,0.4,0.2,0.8,0,1.1c-0.1,0.3-0.4,0.5-0.7,0.6
		c-0.1,0-0.2,0.1-0.4,0.1c-0.1,0-0.4,0-0.7,0c-0.4,0-0.9,0-1.3,0.1c-0.3,0.1-0.6,0.1-0.8,0.1c-0.2,0-0.4,0-0.6-0.1
		c-0.3-0.1-0.5-0.4-0.6-0.7c-0.1-0.3-0.1-0.7,0.1-1c0.2-0.3,0.4-0.7,0.7-1c0.3-0.3,0.6-0.6,0.7-0.8c0.1-0.2,0.3-0.3,0.3-0.5
		c0.1-0.2,0.1-0.3,0.1-0.5c0-0.1-0.1-0.2-0.2-0.3c-0.2-0.1-0.4-0.1-0.5,0.1c-0.2,0.1-0.4,0.5-0.6,1c-0.6,1.2-1.2,1.6-2,1.3
		c-0.4-0.2-0.6-0.5-0.7-0.9c0-0.1-0.1-0.3-0.1-0.4c0-0.1,0-0.3,0.1-0.7c0-0.2,0.1-0.4,0-0.5c0-0.1,0-0.3-0.1-0.5
		c-0.1-0.5-0.2-0.8-0.2-1c0-0.2,0-0.4,0.1-0.6c0.1-0.3,0.4-0.5,0.7-0.6c0.3-0.1,0.6-0.1,0.9,0c0.3,0.1,0.7,0.5,1.1,1.1
		c0.4,0.6,0.8,0.9,0.9,1c0.2,0.1,0.4,0.1,0.5-0.1c0.1-0.2,0.1-0.6,0.1-1.1c0-0.8-0.2-1.5-0.4-2C11.8,173.2,11.4,172.1,11.9,172.3z"
		/>
</g>
<g id="XMLID_67_">
	<path id="XMLID_68_" class="st3" d="M50,159.3c-0.3,1.2-0.6,0.7-1.7,1.5c-1.1,0.8-2.4,1.5-4,2c-0.3,0.1-0.9,0.3-1.9,0.6
		c-0.7,0.2-1,0.5-1.1,0.9c-0.1,0.3,0,0.6,0.4,0.8c0.3,0.2,1.1,0.5,2.3,0.8c0.9,0.2,1.6,0.5,2,0.6c0.4,0.2,0.8,0.4,1,0.7
		c0.3,0.3,0.5,0.7,0.6,1.1c0.1,0.5,0.1,0.9,0,1.3c-0.3,1.2-1.1,1.9-2.6,2c-0.9,0.1-1.5,0.1-1.8,0.2c-0.3,0.1-0.7,0.2-1.2,0.4
		c-0.3,0.2-0.6,0.3-0.8,0.4c-0.2,0.1-0.4,0.2-0.6,0.3c-0.8,0.4-1.6,0.5-2.4,0.4c-0.7-0.2-1.2-0.5-1.5-1c-0.4-0.5-0.5-1.1-0.3-1.8
		c0.2-0.7,0.7-1.5,1.6-2.5c0.7-0.8,1.1-1.3,1.3-1.5c0.2-0.3,0.3-0.5,0.4-0.8c0.1-0.2,0-0.5-0.1-0.7c-0.1-0.2-0.3-0.3-0.5-0.4
		c-0.4-0.1-0.8,0.1-1.2,0.5c-0.4,0.4-0.9,1.2-1.5,2.3c-0.8,1.5-1.6,2.6-2.3,3.2c-0.7,0.6-1.5,0.8-2.3,0.6c-0.7-0.2-1.2-0.6-1.5-1.2
		c-0.1-0.2-0.2-0.5-0.3-0.7c-0.1-0.3-0.1-0.8-0.2-1.5c-0.1-0.9-0.4-1.8-0.9-2.7c-0.3-0.7-0.6-1.2-0.7-1.6c-0.1-0.4-0.1-0.8,0-1.2
		c0.2-0.7,0.6-1.3,1.2-1.6c0.6-0.3,1.4-0.4,2.2-0.2c0.8,0.2,1.6,0.5,2.4,1.1c0.9,0.5,1.5,0.9,2,1.1c0.5,0.2,0.8,0.4,1.1,0.5
		c0.4,0.1,0.7,0.1,1,0c0.3-0.1,0.5-0.3,0.5-0.6c0.1-0.4,0-0.8-0.4-1.1c-0.4-0.3-1.2-0.6-2.4-0.9c-2.8-0.6-4-1.9-3.5-3.7
		c0.2-0.9,0.7-1.5,1.5-1.9c0.3-0.1,0.5-0.2,0.7-0.3c0.2,0,0.7-0.1,1.5-0.1c0.5,0,0.9-0.1,1.2-0.1c0.3-0.1,0.6-0.2,1.1-0.5
		c0.9-0.5,1.6-0.8,2.1-0.9c0.4-0.1,0.9-0.1,1.3,0c0.7,0.2,1.2,0.5,1.6,1.1c0.4,0.6,0.5,1.2,0.3,1.9c-0.2,0.7-0.8,1.6-1.8,2.7
		c-1,1.2-1.6,2-1.7,2.4c-0.1,0.6,0,0.9,0.5,1c0.4,0.1,1.2,0,2.4-0.3c1.7-0.5,3.1-1,4.1-1.7C48.1,159.5,50.3,158.2,50,159.3z"/>
</g>
<g id="XMLID_105_">
	<path id="XMLID_106_" class="st3" d="M20.2,155.2c0.8,0.9,0.2,0.9,0.4,2.2c0.1,1.3,0,2.8-0.4,4.5c-0.1,0.3-0.2,0.9-0.5,1.9
		c-0.2,0.6-0.1,1.1,0.1,1.4c0.2,0.2,0.5,0.3,0.9,0.1c0.3-0.2,1-0.7,1.9-1.5c0.7-0.6,1.2-1.1,1.6-1.3c0.4-0.3,0.7-0.4,1.1-0.5
		c0.4-0.1,0.8-0.1,1.3,0.1c0.5,0.1,0.8,0.4,1.1,0.7c0.9,0.9,1,2,0.3,3.3c-0.4,0.8-0.7,1.3-0.8,1.6c-0.1,0.3-0.2,0.7-0.2,1.2
		c0,0.4,0,0.7-0.1,0.9c0,0.3,0,0.5-0.1,0.6c-0.1,0.9-0.4,1.7-1,2.2c-0.5,0.5-1.1,0.7-1.7,0.7c-0.6,0-1.2-0.2-1.7-0.7
		c-0.5-0.5-0.9-1.4-1.3-2.7c-0.3-1-0.5-1.6-0.6-1.9c-0.1-0.3-0.3-0.6-0.5-0.8c-0.2-0.2-0.4-0.3-0.6-0.3c-0.2,0-0.4,0-0.6,0.2
		c-0.3,0.3-0.4,0.7-0.2,1.3c0.1,0.6,0.5,1.4,1.1,2.5c0.8,1.5,1.3,2.7,1.4,3.7c0.1,0.9-0.2,1.7-0.8,2.3c-0.5,0.5-1.1,0.7-1.9,0.6
		c-0.3,0-0.5-0.1-0.8-0.2c-0.3-0.1-0.7-0.3-1.4-0.6c-0.9-0.4-1.8-0.6-2.7-0.7c-0.7-0.1-1.3-0.2-1.7-0.3c-0.4-0.1-0.7-0.4-1-0.7
		c-0.5-0.5-0.8-1.2-0.7-1.9c0.1-0.7,0.4-1.4,1-2c0.6-0.6,1.3-1,2.2-1.4c0.9-0.4,1.6-0.8,2-1c0.4-0.3,0.8-0.5,1-0.7
		c0.3-0.3,0.5-0.6,0.5-0.9c0-0.3,0-0.6-0.2-0.8c-0.3-0.3-0.7-0.4-1.2-0.2c-0.5,0.2-1.1,0.7-2,1.5c-2,2-3.7,2.3-5,1
		c-0.6-0.6-0.9-1.4-0.8-2.3c0-0.3,0.1-0.6,0.2-0.8c0.1-0.2,0.3-0.7,0.7-1.4c0.2-0.4,0.4-0.8,0.5-1.1c0.1-0.3,0.1-0.7,0.2-1.1
		c0.1-1.1,0.2-1.8,0.3-2.2c0.1-0.4,0.4-0.8,0.7-1.1c0.5-0.5,1.1-0.8,1.8-0.8c0.7,0,1.3,0.2,1.8,0.8c0.5,0.5,0.9,1.5,1.4,3
		c0.5,1.5,0.8,2.4,1.1,2.7c0.4,0.4,0.8,0.4,1.1,0.1c0.3-0.3,0.6-1,1-2.2c0.5-1.7,0.8-3.2,0.8-4.4C19.3,156.8,19.3,154.3,20.2,155.2z
		"/>
</g>
<g id="XMLID_70_">
	<path id="XMLID_71_" class="st3" d="M82.4,157.1c0.7,1,0.1,0.9,0,2.3c-0.1,1.4-0.4,2.8-1.1,4.4c-0.1,0.2-0.4,0.9-0.8,1.8
		c-0.3,0.6-0.3,1.1-0.1,1.4c0.2,0.3,0.5,0.4,0.8,0.2c0.4-0.1,1.1-0.5,2.1-1.2c0.8-0.5,1.4-0.9,1.8-1.1c0.4-0.2,0.8-0.3,1.2-0.3
		c0.4,0,0.8,0.1,1.2,0.3c0.4,0.2,0.8,0.5,1,0.9c0.7,1,0.7,2.1-0.2,3.3c-0.5,0.7-0.8,1.2-1,1.5c-0.2,0.3-0.3,0.7-0.4,1.2
		c-0.1,0.3-0.1,0.6-0.2,0.9c-0.1,0.2-0.1,0.5-0.1,0.6c-0.2,0.9-0.7,1.6-1.3,2c-0.6,0.4-1.2,0.6-1.8,0.5c-0.6-0.1-1.2-0.4-1.6-1
		c-0.4-0.6-0.7-1.5-0.9-2.8c-0.1-1-0.2-1.7-0.3-2c-0.1-0.3-0.2-0.6-0.3-0.8c-0.1-0.2-0.3-0.3-0.5-0.4c-0.2-0.1-0.4,0-0.6,0.1
		c-0.3,0.2-0.5,0.7-0.4,1.3c0.1,0.6,0.3,1.5,0.7,2.7c0.6,1.6,0.9,2.9,0.8,3.8c0,0.9-0.4,1.6-1.1,2.1c-0.6,0.4-1.2,0.5-1.9,0.4
		c-0.2,0-0.5-0.1-0.7-0.3c-0.2-0.1-0.7-0.4-1.3-0.8c-0.8-0.5-1.6-0.9-2.6-1.1c-0.7-0.2-1.3-0.4-1.6-0.6c-0.4-0.2-0.7-0.5-0.9-0.8
		c-0.4-0.6-0.6-1.3-0.4-1.9c0.2-0.7,0.6-1.3,1.3-1.8c0.7-0.5,1.5-0.8,2.4-1.1c1-0.3,1.7-0.5,2.1-0.7c0.5-0.2,0.8-0.4,1.1-0.5
		c0.3-0.2,0.5-0.5,0.6-0.8c0.1-0.3,0.1-0.6-0.1-0.8c-0.3-0.4-0.6-0.5-1.1-0.4c-0.5,0.1-1.2,0.5-2.2,1.2c-2.3,1.7-4,1.8-5.1,0.3
		c-0.5-0.7-0.7-1.5-0.4-2.4c0.1-0.3,0.2-0.5,0.3-0.7c0.1-0.2,0.4-0.6,0.9-1.2c0.3-0.4,0.5-0.7,0.7-1c0.1-0.3,0.2-0.6,0.4-1.1
		c0.3-1,0.5-1.7,0.7-2.1c0.2-0.4,0.5-0.7,0.8-1c0.6-0.4,1.2-0.6,1.9-0.5c0.7,0.1,1.2,0.4,1.6,1c0.4,0.6,0.7,1.6,0.9,3.2
		c0.2,1.6,0.5,2.5,0.7,2.8c0.3,0.5,0.7,0.5,1.1,0.3c0.3-0.2,0.8-0.9,1.4-2c0.8-1.6,1.3-3,1.4-4.2C81.3,158.7,81.7,156.2,82.4,157.1z
		"/>
</g>
</svg>
