<?xml version="1.0" encoding="utf-8"?>
<!-- Generator: Adobe Illustrator 19.0.0, SVG Export Plug-In . SVG Version: 6.00 Build 0)  -->
<svg version="1.1" id="Layer_1" xmlns="http://www.w3.org/2000/svg" xmlns:xlink="http://www.w3.org/1999/xlink" x="0px" y="0px"
	 width="1000px" height="500px" viewBox="194 147 1000 500" style="enable-background:new 194 147 1000 500;" xml:space="preserve">
<style type="text/css">
	.st0{fill:#E8C523;}
	.st1{fill:#FFFFFF;}
</style>
<g id="XMLID_5_">
	<path id="XMLID_6_" class="st0" d="M666.5,285.3c-4.6-2.7-1.2-24.3-3.4-30c-2.1-5.6-3.2-12.2-3.2-19.8c0-1.2-0.1-4.1,0-8.8
		c0.1-3-0.6-5-2.1-5.8c-1.3-0.8-2.6-0.6-3.8,0.5c-1.3,1.1-3.4,3.9-6.4,8.5c-2.3,3.5-4,6-5.3,7.5c-1.3,1.5-2.7,2.7-4.2,3.5
		c-1.6,0.8-3.4,1.2-5.5,1.1c-2.1-0.1-4-0.6-5.7-1.6c-4.8-2.8-6.5-7.4-5-13.7c0.8-3.7,1.3-6.3,1.5-7.9c0.1-1.6,0-3.4-0.3-5.5
		c-0.3-1.5-0.6-2.9-0.7-4c-0.2-1.1-0.3-2-0.5-2.7c-0.7-4-0.1-7.6,1.7-10.7c1.5-2.6,3.7-4.3,6.4-5.1c2.7-0.8,5.4-0.4,8.1,1.2
		c2.8,1.6,5.6,5,8.5,10c2.3,3.8,4,6.3,4.8,7.5c0.9,1.2,1.8,2.1,2.9,2.7c1,0.6,1.9,0.8,2.9,0.6c1-0.2,1.7-0.7,2.2-1.5
		c0.9-1.6,0.7-3.5-0.5-5.8c-1.3-2.3-3.8-5.5-7.7-9.5c-5.3-5.5-8.8-10.2-10.2-14.1c-1.5-3.9-1.3-7.4,0.7-10.7c1.6-2.7,4-4.3,7.3-4.9
		c1.1-0.2,2.3-0.3,3.5-0.2c1.2,0.1,3.5,0.4,6.7,1c4.1,0.7,8.3,0.6,12.5,0c3.3-0.6,5.8-0.8,7.7-0.6c1.9,0.2,3.6,0.7,5.2,1.7
		c2.9,1.7,4.6,4.1,5.1,7.2c0.5,3.1-0.2,6.3-2.1,9.6c-1.8,3.1-4.4,6-7.9,8.7c-3.3,2.9-5.8,5.2-7.4,6.8c-1.6,1.6-2.7,3-3.4,4.1
		c-0.9,1.6-1.3,3-1.2,4.4c0.1,1.4,0.7,2.4,1.8,3c1.7,1,3.4,0.9,5.3-0.3c1.8-1.2,4.1-4.1,6.9-8.9c6.4-10.9,13.2-14.3,20.3-10.1
		c3.4,2,5.4,5,5.9,8.9c0.2,1.4,0.3,2.5,0.1,3.4c-0.1,0.9-0.6,3.2-1.6,6.7c-0.6,2.1-0.9,3.8-0.9,5.1c-0.1,1.3,0.1,3,0.5,5.1
		c0.8,4.6,1.2,7.9,1.1,9.9c-0.1,2-0.6,3.8-1.6,5.5c-1.6,2.7-3.9,4.5-6.8,5.3c-2.9,0.8-5.8,0.4-8.5-1.2c-2.6-1.5-5.7-5.3-9.2-11.2
		c-3.7-5.9-6.3-9.3-7.9-10.2c-2.2-1.3-3.8-1-4.9,0.9c-0.9,1.6-1.6,5.2-1.9,10.7c-0.4,8,0.2,14.6,1.7,19.8
		C669.2,256.4,671,288,666.5,285.3z"/>
</g>
<g id="XMLID_2_">
	<path id="XMLID_8_" class="st1" d="M358.9,333.6v14.3h-46.7v-14.3l12.3-4.1v-77.9l-12.3-4.9V233l42.3-0.8l24.6,54.6l25.7-53.8
		l39.4-0.8v14.4l-11.8,4.9v77.9l12.3,4.1v14.3h-48.9v-14.3l12.8-4.1v-62.1c-2,5.1-4.2,10.5-6.8,16c-2.6,5.5-5.5,11.5-8.7,18
		c-3.2,6.5-5.7,11.6-7.5,15.3l-17.7,0.8l-18.9-38.9l-2.8-8.5v59.4L358.9,333.6z"/>
	<path id="XMLID_10_" class="st1" d="M540.1,346.7l-32.5,1.1l-3-10.7c-1,0.9-2.3,2-3.9,3.4c-1.6,1.4-4.8,3.2-9.4,5.5
		c-4.7,2.3-9,3.4-13.2,3.4c-8,0-14.2-2.2-18.7-6.7c-4.5-4.5-6.7-10.8-6.7-19c0-18,13.1-27.1,39.4-27.1h11.5v-9
		c0-8.2-4.2-12.3-12.6-12.3c-2.5,0-5,0.2-7.4,0.7c-2.4,0.4-4.2,0.9-5.4,1.3l-1.6,0.5l-2.5,10.7h-14.8l-1.2-24.3
		c13.2-4.4,25.1-6.6,35.6-6.6c12.5,0,21.3,2.4,26.4,7.3c5.1,4.9,7.7,13.3,7.7,25.2v40.5l12.3,3V346.7z M476.3,321.3
		c0,6.6,3.2,9.8,9.7,9.8c2.6,0,5.4-0.8,8.3-2.4c2.9-1.6,5.2-3.2,6.8-4.8l2.5-2.3v-11h-9.3c-6.3,0-10.9,0.8-13.7,2.5
		C477.7,314.8,476.3,317.5,476.3,321.3z"/>
	<path id="XMLID_13_" class="st1" d="M544,365.9c0-4.2,1.4-7.9,4.3-11.2c2.8-3.3,5.7-5.5,8.5-6.7l4.4-1.8c-0.8-0.1-1.7-0.3-2.8-0.7
		c-1.1-0.3-2.5-1.4-4.3-3.3c-1.8-1.9-2.7-4.2-2.7-6.9c0-3.4,2.8-9.6,8.5-18.5c-8.4-5.6-12.6-14.1-12.6-25.6
		c0-10.8,3.6-19.1,10.9-24.9c7.3-5.8,16.8-8.7,28.4-8.7c7.3,0,13.8,1.3,19.4,3.9l28.2-0.7V274l-13.4,2.3c0,0.1,0.3,0.8,0.8,2.2
		c0.5,1.4,1,3,1.4,4.8c0.4,1.9,0.6,3.8,0.6,5.9c0,11.4-3.6,19.8-10.7,25.3c-7.1,5.5-16.7,8.3-28.7,8.3c-1.3,0-2.6-0.1-3.9-0.2
		c-1.3-0.1-2.3-0.2-3.1-0.4c-0.8-0.2-1.3-0.2-1.4-0.2l-0.7,11h24.3c10.5,0,18.6,2.2,24.3,6.6c5.7,4.4,8.5,10.7,8.5,18.9
		c0,9.4-3.9,16.9-11.6,22.6c-7.7,5.7-19.2,8.5-34.4,8.5c-13.8,0-24.3-1.8-31.5-5.4C547.7,380.6,544,374.5,544,365.9z M592.9,351.1
		h-17.2c-0.6,0.2-1.3,0.6-2.1,1.1c-0.9,0.5-2.1,1.7-3.5,3.6c-1.5,1.9-2.2,3.8-2.2,5.9c0,3.9,1.6,6.6,4.8,7.9c3.2,1.3,8.4,2,15.7,2
		c7.4,0,12.8-0.9,16.1-2.6c3.3-1.8,4.9-4.6,4.9-8.5c0-3.5-1.3-5.9-3.9-7.3C602.9,351.8,598.7,351.1,592.9,351.1z M585.9,274.5
		c-9.3,0-13.9,5.2-13.9,15.6c0,10.9,4.4,16.4,13.1,16.4c5,0,8.6-1.3,10.7-3.9c2.1-2.6,3.2-6.8,3.2-12.5
		C599,279.7,594.6,274.5,585.9,274.5z"/>
	<path id="XMLID_17_" class="st1" d="M643.7,260.6l37.2-1.3v71.3l11.5,4.1v13.1h-48.7v-13.1l13.1-4.1V277l-13.1-3.3V260.6z"/>
	<path id="XMLID_20_" class="st1" d="M764.8,321.6l8.2,13.9c-10.6,9.3-22.4,13.9-35.3,13.9c-13.4,0-23.9-3.9-31.4-11.8
		c-7.5-7.9-11.2-18.8-11.2-32.8c0-14.6,4-26.2,11.9-34.6c7.9-8.4,19-12.6,33.2-12.6c4.2,0,8.6,0.5,13.4,1.4
		c4.8,0.9,8.6,1.9,11.3,2.9l3.9,1.5l-0.8,26.7h-14.8l-2.3-11.8c-3.2-0.9-6.9-1.3-11.3-1.3c-6.1,0-10.9,2.1-14.2,6.1
		c-3.3,4.1-5,10.2-5,18.4c0,9.3,1.7,16.4,5.2,21.3c3.4,4.9,8.6,7.4,15.3,7.4c2.2,0,4.3-0.2,6.2-0.6c2-0.4,3.9-1,5.7-1.7
		c1.9-0.8,3.3-1.4,4.3-2c1-0.5,2.5-1.4,4.3-2.5C763.4,322.5,764.4,321.8,764.8,321.6z"/>
	<path id="XMLID_22_" class="st1" d="M868.1,346.7l-32.5,1.1l-3-10.7c-1,0.9-2.3,2-3.9,3.4c-1.6,1.4-4.8,3.2-9.4,5.5
		c-4.7,2.3-9,3.4-13.2,3.4c-8,0-14.2-2.2-18.7-6.7c-4.5-4.5-6.7-10.8-6.7-19c0-18,13.1-27.1,39.4-27.1h11.5v-9
		c0-8.2-4.2-12.3-12.6-12.3c-2.5,0-5,0.2-7.4,0.7c-2.4,0.4-4.2,0.9-5.4,1.3l-1.6,0.5l-2.5,10.7h-14.8l-1.2-24.3
		c13.2-4.4,25.1-6.6,35.6-6.6c12.5,0,21.3,2.4,26.4,7.3c5.1,4.9,7.7,13.3,7.7,25.2v40.5l12.3,3V346.7z M804.3,321.3
		c0,6.6,3.2,9.8,9.7,9.8c2.6,0,5.4-0.8,8.3-2.4c2.9-1.6,5.2-3.2,6.8-4.8l2.5-2.3v-11h-9.3c-6.3,0-10.9,0.8-13.7,2.5
		C805.7,314.8,804.3,317.5,804.3,321.3z"/>
	<path id="XMLID_25_" class="st1" d="M875.8,222.1l37.9-1.3v109.9l15.6,4.1v13.1h-53.5v-13.1l13.1-4.1v-92.2l-13.1-3.3V222.1z"/>
	<path id="XMLID_27_" class="st1" d="M934.5,222.1l37.9-1.3v109.9l15.6,4.1v13.1h-53.5v-13.1l13.1-4.1v-92.2l-13.1-3.3V222.1z"/>
	<path id="XMLID_29_" class="st1" d="M1022,348l-29.2-72.1l-8.7-2.6v-13.1l43.8-0.8v13.9l-9.2,1.6l14.6,45.9l13.9-45.4l-9.5-2.1
		v-13.1l44.1-0.8v13.9l-10.2,2.1l-24.1,67.2c-2.4,6.4-4.7,11.9-6.8,16.3c-2.1,4.4-4.9,9-8.4,13.8c-3.5,4.8-7.7,8.4-12.6,10.8
		c-4.9,2.5-10.5,3.7-16.7,3.7l-15.9-1.3l2.3-17.5h10.7c3.1,0,5.9-0.7,8.4-2c2.6-1.4,4.8-3.3,6.6-5.9c1.8-2.6,3.1-4.7,4-6.3
		C1020,352.4,1020.9,350.4,1022,348z"/>
</g>
<g>
	<path class="st0" d="M357.1,565.2l-2.2-9.5c-3-1.1-6.5-1.7-10.6-1.7c-5.6,0-9.9,2-12.9,6.1c-3,4.1-4.5,9.8-4.5,17.2
		c0,7.4,1.6,12.9,4.8,16.5c3.2,3.6,7.6,5.4,13,5.4c1.2,0,2.5-0.1,3.9-0.4c1.4-0.3,2.8-0.7,4.1-1.2c1.3-0.5,2.5-1.1,3.6-1.7
		c1.1-0.6,2-1.1,2.7-1.7l2.2-1.7l3.3,5.4c-1.2,1.2-2.6,2.3-4.2,3.4c-1.6,1.1-3.3,2-5.1,2.8c-1.8,0.8-3.7,1.4-5.6,1.9
		c-1.9,0.4-3.9,0.7-5.9,0.7c-8.5,0-15-2.4-19.6-7.3c-4.6-4.9-6.9-12-6.9-21.4c0-4.7,0.6-9,1.9-12.8c1.3-3.8,3.2-7.1,5.6-9.7
		c2.4-2.7,5.3-4.8,8.7-6.2c3.4-1.5,7.2-2.2,11.5-2.2c1.3,0,2.7,0.1,4.2,0.3c1.5,0.2,3,0.5,4.5,0.8c1.5,0.3,2.8,0.7,4.1,1
		c1.3,0.4,2.4,0.7,3.2,1l2.7,1l-0.4,14H357.1z"/>
	<path class="st0" d="M372.4,577.6c0-4.6,0.6-8.8,1.9-12.6c1.2-3.8,3.1-7,5.4-9.7c2.4-2.7,5.2-4.7,8.5-6.1c3.3-1.4,6.9-2.1,11-2.1
		c4,0,7.7,0.7,10.9,2c3.2,1.4,5.9,3.3,8.2,5.8c2.2,2.5,3.9,5.6,5.1,9.2c1.2,3.6,1.7,7.6,1.7,12.1s-0.7,8.6-2,12.3
		c-1.3,3.7-3.2,6.9-5.6,9.6c-2.4,2.7-5.3,4.8-8.7,6.3c-3.4,1.5-7.1,2.3-11.2,2.3c-8.1,0-14.4-2.5-18.7-7.5
		C374.6,594.2,372.4,587,372.4,577.6z M399,554.1c-11.3,0-17,7.6-17,22.8c0,15.2,5.4,22.8,16.2,22.8c5.5,0,9.8-1.9,12.8-5.8
		c3-3.9,4.6-9.7,4.6-17.4C415.5,561.6,410,554.1,399,554.1z"/>
	<path class="st0" d="M433.4,605.9v-5l7-1.7v-44.8l-7-1.7v-4.6l15.8-0.4h9.1c5.9,0,10.4,1.3,13.7,4c3.3,2.7,4.9,6.3,4.9,10.9
		c0,8.1-3.6,13.5-10.8,16.2c1.3,1.2,3,3.6,5,7.5l6.5,13.2l5.9,1.3v5h-12.4l-7-15.3c-1.9-4.1-3.6-6.8-5-8.1c-1.4-1.2-3.5-1.9-6.2-1.9
		h-3.7v18.7l7,1.7v5H433.4z M449.1,554.5v19.9h6.2c4,0,7.2-0.9,9.5-2.7c2.3-1.8,3.4-4.2,3.4-7.2c0-3-1-5.5-2.9-7.3
		c-1.9-1.8-4.4-2.7-7.5-2.7H449.1z"/>
	<path class="st0" d="M487.3,605.9v-5l7-1.7v-44.8l-7-1.7v-4.6l15.8-0.4h8.7c6.1,0,10.8,1.5,14.1,4.6c3.3,3,4.9,7.2,4.9,12.4
		c0,6.4-1.9,11.2-5.8,14.5c-3.9,3.3-9.4,5-16.5,5H503v14.9l7,1.7v5H487.3z M503,554.5v23.2h5.4c9.1,0,13.7-3.9,13.7-11.6
		c0-3.4-0.9-6.2-2.8-8.4c-1.9-2.2-4.5-3.2-8-3.2H503z"/>
	<path class="st0" d="M537.8,577.6c0-4.6,0.6-8.8,1.9-12.6c1.2-3.8,3.1-7,5.4-9.7c2.4-2.7,5.2-4.7,8.5-6.1c3.3-1.4,6.9-2.1,11-2.1
		c4,0,7.7,0.7,10.9,2c3.2,1.4,5.9,3.3,8.2,5.8c2.2,2.5,3.9,5.6,5.1,9.2c1.2,3.6,1.7,7.6,1.7,12.1s-0.7,8.6-2,12.3
		c-1.3,3.7-3.2,6.9-5.6,9.6c-2.4,2.7-5.3,4.8-8.7,6.3c-3.4,1.5-7.1,2.3-11.2,2.3c-8.1,0-14.4-2.5-18.7-7.5
		C540,594.2,537.8,587,537.8,577.6z M564.3,554.1c-11.3,0-17,7.6-17,22.8c0,15.2,5.4,22.8,16.2,22.8c5.5,0,9.8-1.9,12.8-5.8
		c3-3.9,4.6-9.7,4.6-17.4C580.9,561.6,575.4,554.1,564.3,554.1z"/>
	<path class="st0" d="M598.7,605.9v-5l7-1.7v-44.8l-7-1.7v-4.6l15.8-0.4h9.1c5.9,0,10.4,1.3,13.7,4c3.3,2.7,4.9,6.3,4.9,10.9
		c0,8.1-3.6,13.5-10.8,16.2c1.3,1.2,3,3.6,5,7.5l6.5,13.2l5.9,1.3v5h-12.4l-7-15.3c-1.9-4.1-3.6-6.8-5-8.1c-1.4-1.2-3.5-1.9-6.2-1.9
		h-3.7v18.7l7,1.7v5H598.7z M614.5,554.5v19.9h6.2c4,0,7.2-0.9,9.5-2.7c2.3-1.8,3.4-4.2,3.4-7.2c0-3-1-5.5-2.9-7.3
		c-1.9-1.8-4.4-2.7-7.5-2.7H614.5z"/>
	<path class="st0" d="M649.7,605.9v-5l6.8-1.6l18.9-51l8.3-0.4l18.4,51.4l6.9,1.6v5h-24v-5l7.7-1.6l-3.1-9.1H668l-3.2,9.1l7.8,1.6v5
		H649.7z M678.9,558.6l-8.7,25h17.1L678.9,558.6z"/>
	<path class="st0" d="M742.2,600.9v5h-25.3v-5l8.3-1.7v-44.8h-10.8l-2.1,8.3h-5.4v-14.9h45.2v14.9h-5.4l-2.1-8.3h-10.8v44.8
		L742.2,600.9z"/>
	<path class="st0" d="M779,600.9v5h-22.8v-5l7-1.7v-44.8l-7-1.7v-4.6l22.8-0.4v5l-7,1.7v44.8L779,600.9z"/>
	<path class="st0" d="M787.3,577.6c0-4.6,0.6-8.8,1.9-12.6c1.2-3.8,3.1-7,5.4-9.7c2.4-2.7,5.2-4.7,8.5-6.1c3.3-1.4,6.9-2.1,11-2.1
		s7.7,0.7,10.9,2c3.2,1.4,5.9,3.3,8.2,5.8c2.2,2.5,3.9,5.6,5.1,9.2c1.2,3.6,1.7,7.6,1.7,12.1s-0.7,8.6-2,12.3
		c-1.3,3.7-3.2,6.9-5.6,9.6c-2.4,2.7-5.3,4.8-8.7,6.3c-3.4,1.5-7.1,2.3-11.2,2.3c-8.1,0-14.4-2.5-18.7-7.5
		C789.5,594.2,787.3,587,787.3,577.6z M813.9,554.1c-11.3,0-17,7.6-17,22.8c0,15.2,5.4,22.8,16.2,22.8c5.5,0,9.8-1.9,12.8-5.8
		c3-3.9,4.6-9.7,4.6-17.4C830.4,561.6,824.9,554.1,813.9,554.1z"/>
	<path class="st0" d="M890.1,605.9l-27.4-45.7v39l7.9,1.7v5h-22.4v-5l7-1.7v-44.8l-7-1.7v-4.6l17.4-0.4l27.4,46.3v-39.7l-7-1.7v-4.6
		l21.6-0.4v5l-7,1.7v51.4H890.1z"/>
	<path class="st0" d="M948.2,554.5v44.8h17l1.7-9.5h5.8v16.2h-40.2v-5l7-1.7v-44.8l-7-1.7v-4.6l22.8-0.4v5L948.2,554.5z"/>
	<path class="st0" d="M1009.5,600.9v5h-25.3v-5l8.3-1.7v-44.8h-10.8l-2.1,8.3h-5.4v-14.9h45.2v14.9h-5.4l-2.1-8.3h-10.8v44.8
		L1009.5,600.9z"/>
	<path class="st0" d="M1025.2,605.9v-5l7-1.7v-44.8l-7-1.7v-4.6l15.8-0.4h10.4c4.1,0,7.8,0.6,11,1.9c3.2,1.2,6,3.1,8.2,5.5
		c2.2,2.4,4,5.4,5.1,8.9c1.2,3.5,1.8,7.5,1.8,12.1c0,4.5-0.7,8.6-1.9,12.3c-1.3,3.6-3.1,6.8-5.5,9.4c-2.4,2.6-5.3,4.6-8.6,6
		c-3.4,1.4-7.1,2.1-11.3,2.1H1025.2z M1041,599.3h9.5c5.5,0,9.7-1.9,12.8-5.6c3.1-3.8,4.6-9.4,4.6-17c0-7.6-1.5-13.2-4.5-16.8
		s-7.2-5.3-12.5-5.3h-9.9V599.3z"/>
</g>
<g>
	<path class="st1" d="M405.9,456.5c0,17.2-4.9,30.3-14.7,39.5c-9.8,9.1-23.9,13.7-42.4,13.7h-29.6V405.3H352
		c17,0,30.3,4.5,39.7,13.5C401.2,427.8,405.9,440.3,405.9,456.5z M382.9,457.1c0-22.4-9.9-33.6-29.7-33.6h-11.8v68h9.5
		C372.2,491.4,382.9,479.9,382.9,457.1z"/>
	<path class="st1" d="M487.6,509.7h-60.1V405.3h60.1v18.1h-38v22.9H485v18.1h-35.3v26.9h38V509.7z"/>
	<path class="st1" d="M509.4,509.7V405.3h22.1v86.1h42.3v18.3H509.4z"/>
	<path class="st1" d="M592,509.7V405.3h22.1v104.4H592z"/>
	<path class="st1" d="M684.8,422.2c-8.3,0-14.8,3.1-19.3,9.4c-4.6,6.3-6.9,15-6.9,26.2c0,23.3,8.7,34.9,26.2,34.9
		c7.3,0,16.2-1.8,26.6-5.5v18.6c-8.6,3.6-18.1,5.4-28.7,5.4c-15.2,0-26.8-4.6-34.8-13.8c-8-9.2-12.1-22.4-12.1-39.7
		c0-10.9,2-20.4,5.9-28.5c4-8.2,9.6-14.4,17-18.8c7.4-4.4,16.1-6.5,26-6.5c10.1,0,20.3,2.5,30.6,7.4l-7.1,18
		c-3.9-1.9-7.8-3.5-11.8-4.9C692.5,422.9,688.6,422.2,684.8,422.2z"/>
	<path class="st1" d="M733.6,509.7V405.3h22.1v104.4H733.6z"/>
	<path class="st1" d="M876.8,457.3c0,17.3-4.3,30.6-12.9,39.8s-20.8,13.9-36.8,13.9s-28.3-4.6-36.8-13.9c-8.6-9.3-12.9-22.6-12.9-40
		c0-17.4,4.3-30.6,12.9-39.8c8.6-9.2,20.9-13.7,37-13.7c16,0,28.3,4.6,36.8,13.9C872.5,426.7,876.8,440,876.8,457.3z M800.6,457.3
		c0,11.7,2.2,20.4,6.6,26.3c4.4,5.9,11,8.9,19.8,8.9c17.7,0,26.5-11.7,26.5-35.2c0-23.5-8.8-35.3-26.3-35.3c-8.8,0-15.4,3-19.9,8.9
		C802.8,436.9,800.6,445.7,800.6,457.3z"/>
	<path class="st1" d="M983.4,405.3v67.5c0,7.7-1.7,14.5-5.2,20.3c-3.5,5.8-8.4,10.3-15,13.4c-6.5,3.1-14.2,4.6-23.1,4.6
		c-13.4,0-23.8-3.4-31.3-10.3c-7.4-6.9-11.1-16.3-11.1-28.2v-67.3h22.1v63.9c0,8,1.6,13.9,4.9,17.7c3.2,3.8,8.6,5.6,16.1,5.6
		c7.2,0,12.5-1.9,15.7-5.7c3.3-3.8,4.9-9.7,4.9-17.8v-63.8H983.4z"/>
	<path class="st1" d="M1070.5,480.7c0,9.4-3.4,16.9-10.2,22.3s-16.2,8.1-28.3,8.1c-11.1,0-21-2.1-29.6-6.3v-20.6
		c7,3.1,13,5.4,17.9,6.6c4.9,1.3,9.3,1.9,13.4,1.9c4.9,0,8.6-0.9,11.2-2.8c2.6-1.9,3.9-4.6,3.9-8.3c0-2-0.6-3.9-1.7-5.5
		s-2.8-3.1-5-4.6c-2.2-1.5-6.7-3.8-13.5-7.1c-6.4-3-11.2-5.9-14.4-8.6c-3.2-2.8-5.7-6-7.6-9.6c-1.9-3.7-2.9-7.9-2.9-12.9
		c0-9.2,3.1-16.5,9.4-21.8c6.3-5.3,14.9-7.9,26-7.9c5.4,0,10.6,0.6,15.5,1.9s10.1,3.1,15.5,5.4l-7.1,17.2
		c-5.6-2.3-10.2-3.9-13.8-4.8c-3.6-0.9-7.2-1.4-10.7-1.4c-4.2,0-7.4,1-9.6,2.9c-2.2,2-3.4,4.5-3.4,7.6c0,2,0.5,3.7,1.4,5.1
		c0.9,1.5,2.3,2.9,4.3,4.2c2,1.4,6.7,3.8,14,7.3c9.8,4.7,16.4,9.3,20.1,14C1068.7,468.1,1070.5,473.9,1070.5,480.7z"/>
</g>
</svg>
